<svg width="20" height="21" viewBox="0 0 20 21" fill="none" xmlns="http://www.w3.org/2000/svg">
<path d="M17.989 9.57395C17.907 7.99987 17.3596 6.48556 16.416 5.22295C16.1285 5.53258 15.8212 5.8232 15.496 6.09295C14.4969 6.9228 13.3805 7.60014 12.183 8.10295C12.35 8.45295 12.503 8.79195 12.638 9.11195V9.11495C12.6761 9.20437 12.7128 9.29438 12.748 9.38495C14.262 9.21495 15.858 9.27695 17.405 9.48595C17.611 9.51395 17.805 9.54395 17.989 9.57395ZM8.604 2.12395C9.57854 3.49713 10.4772 4.92259 11.296 6.39395C12.519 5.91195 13.53 5.30395 14.344 4.62695C14.6266 4.39409 14.8925 4.14181 15.14 3.87195C13.701 2.66167 11.8803 1.99929 10 2.00195C9.53203 2.00163 9.06493 2.04212 8.604 2.12295V2.12395ZM2.253 7.99895C2.93423 7.98176 3.61464 7.94074 4.293 7.87595C5.93264 7.7293 7.55828 7.45446 9.155 7.05395C8.32051 5.60416 7.41955 4.19366 6.455 2.82695C5.42472 3.33735 4.51626 4.06336 3.79124 4.95574C3.06623 5.84812 2.54162 6.88599 2.253 7.99895ZM3.783 15.037C4.171 14.47 4.681 13.832 5.358 13.138C6.812 11.648 8.528 10.488 10.514 9.84795L10.576 9.82995C10.411 9.46595 10.256 9.14095 10.1 8.83495C8.264 9.36995 6.33 9.70395 4.403 9.87695C3.463 9.96195 2.62 9.99895 2 10.005C1.99823 11.8375 2.62829 13.6147 3.784 15.037H3.783ZM13.005 17.417C12.6194 15.4722 12.0735 13.5627 11.373 11.708C9.371 12.435 7.776 13.498 6.543 14.766C6.0454 15.2683 5.60382 15.8233 5.226 16.421C6.60481 17.4497 8.27968 18.0044 10 18.002C11.0299 18.0034 12.0504 17.8055 13.005 17.419V17.417ZM14.878 16.342C16.4393 15.1417 17.5028 13.4077 17.865 11.472C17.525 11.387 17.094 11.302 16.62 11.236C15.5661 11.0842 14.4968 11.0731 13.44 11.203C14.0351 12.8818 14.5155 14.5991 14.878 16.343V16.342ZM10 20.002C4.477 20.002 0 15.525 0 10.002C0 4.47895 4.477 0.00195312 10 0.00195312C15.523 0.00195312 20 4.47895 20 10.002C20 15.525 15.523 20.002 10 20.002Z" fill="#242424"/>
</svg>
