<svg width="20" height="21" viewBox="0 0 20 21" fill="none" xmlns="http://www.w3.org/2000/svg">
<path d="M10 0.00195312C12.717 0.00195312 13.056 0.0119531 14.122 0.0619531C15.187 0.111953 15.912 0.278953 16.55 0.526953C17.21 0.780953 17.766 1.12495 18.322 1.67995C18.8305 2.17985 19.224 2.78454 19.475 3.45195C19.722 4.08895 19.89 4.81495 19.94 5.87995C19.987 6.94595 20 7.28495 20 10.002C20 12.719 19.99 13.058 19.94 14.124C19.89 15.189 19.722 15.914 19.475 16.552C19.2247 17.2197 18.8311 17.8246 18.322 18.324C17.822 18.8323 17.2173 19.2257 16.55 19.477C15.913 19.724 15.187 19.892 14.122 19.942C13.056 19.989 12.717 20.002 10 20.002C7.283 20.002 6.944 19.992 5.878 19.942C4.813 19.892 4.088 19.724 3.45 19.477C2.78233 19.2264 2.17753 18.8329 1.678 18.324C1.16941 17.8241 0.775931 17.2194 0.525 16.552C0.277 15.915 0.11 15.189 0.0599999 14.124C0.0129999 13.058 0 12.719 0 10.002C0 7.28495 0.00999994 6.94595 0.0599999 5.87995C0.11 4.81395 0.277 4.08995 0.525 3.45195C0.775236 2.78413 1.1688 2.17927 1.678 1.67995C2.17767 1.17118 2.78243 0.777682 3.45 0.526953C4.088 0.278953 4.812 0.111953 5.878 0.0619531C6.944 0.0149531 7.283 0.00195312 10 0.00195312ZM10 5.00195C8.67392 5.00195 7.40215 5.52874 6.46447 6.46642C5.52678 7.4041 5 8.67587 5 10.002C5 11.328 5.52678 12.5998 6.46447 13.5375C7.40215 14.4752 8.67392 15.002 10 15.002C11.3261 15.002 12.5979 14.4752 13.5355 13.5375C14.4732 12.5998 15 11.328 15 10.002C15 8.67587 14.4732 7.4041 13.5355 6.46642C12.5979 5.52874 11.3261 5.00195 10 5.00195ZM16.5 4.75195C16.5 4.42043 16.3683 4.10249 16.1339 3.86807C15.8995 3.63365 15.5815 3.50195 15.25 3.50195C14.9185 3.50195 14.6005 3.63365 14.3661 3.86807C14.1317 4.10249 14 4.42043 14 4.75195C14 5.08347 14.1317 5.40142 14.3661 5.63584C14.6005 5.87026 14.9185 6.00195 15.25 6.00195C15.5815 6.00195 15.8995 5.87026 16.1339 5.63584C16.3683 5.40142 16.5 5.08347 16.5 4.75195ZM10 7.00195C10.7956 7.00195 11.5587 7.31802 12.1213 7.88063C12.6839 8.44324 13 9.2063 13 10.002C13 10.7976 12.6839 11.5607 12.1213 12.1233C11.5587 12.6859 10.7956 13.002 10 13.002C9.20435 13.002 8.44129 12.6859 7.87868 12.1233C7.31607 11.5607 7 10.7976 7 10.002C7 9.2063 7.31607 8.44324 7.87868 7.88063C8.44129 7.31802 9.20435 7.00195 10 7.00195Z" fill="#242424"/>
</svg>
