<?xml version="1.0" encoding="UTF-8" standalone="no"?>
<svg
   xmlns:dc="http://purl.org/dc/elements/1.1/"
   xmlns:cc="http://creativecommons.org/ns#"
   xmlns:rdf="http://www.w3.org/1999/02/22-rdf-syntax-ns#"
   xmlns:svg="http://www.w3.org/2000/svg"
   xmlns="http://www.w3.org/2000/svg"
   xmlns:sodipodi="http://sodipodi.sourceforge.net/DTD/sodipodi-0.dtd"
   xmlns:inkscape="http://www.inkscape.org/namespaces/inkscape"
   width="288"
   height="427"
   viewBox="0 0 288 427"
   fill="none"
   id="svg2"
   version="1.1"
   inkscape:version="0.91 r13725"
   sodipodi:docname="digital_mobile.svg">
  <metadata
     id="metadata15">
    <rdf:RDF>
      <cc:Work
         rdf:about="">
        <dc:format>image/svg+xml</dc:format>
        <dc:type
           rdf:resource="http://purl.org/dc/dcmitype/StillImage" />
        <dc:title></dc:title>
      </cc:Work>
    </rdf:RDF>
  </metadata>
  <sodipodi:namedview
     pagecolor="#ffffff"
     bordercolor="#666666"
     borderopacity="1"
     objecttolerance="10"
     gridtolerance="10"
     guidetolerance="10"
     inkscape:pageopacity="0"
     inkscape:pageshadow="2"
     inkscape:window-width="852"
     inkscape:window-height="405"
     id="namedview13"
     showgrid="false"
     inkscape:zoom="0.55269321"
     inkscape:cx="13.728814"
     inkscape:cy="213.5"
     inkscape:window-x="180"
     inkscape:window-y="477"
     inkscape:window-maximized="0"
     inkscape:current-layer="svg2" />
  <path
     d="M9.44023 5.28043V4.28043H8.44023V5.28043H9.44023ZM74.8402 6.72043L74.6531 7.70277L74.8402 6.72043ZM87.3202 10.9204L86.831 11.7925L86.8391 11.7971L86.8474 11.8016L87.3202 10.9204ZM95.2402 16.4404L94.5477 17.1618L94.5624 17.1759L94.5776 17.1894L95.2402 16.4404ZM101 22.9204L101.821 22.3488L101.816 22.3417L101 22.9204ZM89.9602 84.0004L90.4354 84.8803L90.4391 84.8783L89.9602 84.0004ZM77.9602 88.6804L78.1792 89.6561L78.1864 89.6545L78.1936 89.6528L77.9602 88.6804ZM9.44023 90.0004H8.44023V91.0004H9.44023V90.0004ZM39.0802 70.8004H38.0802V71.8004H39.0802V70.8004ZM66.4402 68.7604L66.8314 69.6808L66.8422 69.676L66.4402 68.7604ZM73.6402 63.9604L72.8834 63.3068L73.6402 63.9604ZM77.1202 57.6004L76.1745 57.2753L76.1714 57.2843L76.1685 57.2934L77.1202 57.6004ZM78.5602 51.9604L77.5679 51.8364L77.5643 51.865L77.5624 51.8939L78.5602 51.9604ZM71.0002 30.0004L70.3873 30.7907L70.3982 30.7989L71.0002 30.0004ZM39.0802 25.4404V24.4404H38.0802V25.4404H39.0802ZM9.44023 6.28043H57.5602V4.28043H9.44023V6.28043ZM57.5602 6.28043C63.993 6.28043 69.6884 6.7571 74.6531 7.70277L75.0273 5.73809C69.912 4.76375 64.0874 4.28043 57.5602 4.28043V6.28043ZM74.6531 7.70277C79.623 8.64941 83.6723 10.0206 86.831 11.7925L87.8095 10.0483C84.4081 8.14018 80.1375 6.71145 75.0273 5.73809L74.6531 7.70277ZM86.8474 11.8016C90.0727 13.5322 92.6313 15.3221 94.5477 17.1618L95.9327 15.719C93.8491 13.7187 91.1277 11.8286 87.793 10.0392L86.8474 11.8016ZM94.5776 17.1894C96.5952 18.9741 98.4648 21.0757 100.184 23.4991L101.816 22.3417C100.015 19.8051 98.0452 17.5867 95.9028 15.6914L94.5776 17.1894ZM100.179 23.492C105.006 30.4197 107.44 38.7726 107.44 48.6004H109.44C109.44 38.4282 106.914 29.6611 101.821 22.3488L100.179 23.492ZM107.44 48.6004C107.44 65.203 101.409 76.6164 89.4814 83.1225L90.4391 84.8783C103.151 77.9444 109.44 65.7578 109.44 48.6004H107.44ZM89.4851 83.1205C85.5534 85.2436 81.6343 86.7702 77.7268 87.708L78.1936 89.6528C82.2861 88.6706 86.367 87.0772 90.4354 84.8803L89.4851 83.1205ZM77.7412 87.7047C73.9182 88.5629 69.0777 89.0004 63.2002 89.0004V91.0004C69.1627 91.0004 74.1622 90.5579 78.1792 89.6561L77.7412 87.7047ZM63.2002 89.0004H9.44023V91.0004H63.2002V89.0004ZM10.4402 90.0004V5.28043H8.44023V90.0004H10.4402ZM39.0802 71.8004H55.0402V69.8004H39.0802V71.8004ZM55.0402 71.8004C59.5402 71.8004 63.4795 71.1053 66.8313 69.6807L66.0491 67.8401C63.0009 69.1355 59.3402 69.8004 55.0402 69.8004V71.8004ZM66.8422 69.676C70.192 68.2054 72.7414 66.5311 74.397 64.614L72.8834 63.3068C71.499 64.9097 69.2484 66.4354 66.0382 67.8448L66.8422 69.676ZM74.397 64.614C76.0145 62.7412 77.2358 60.4995 78.0719 57.9074L76.1685 57.2934C75.4046 59.6613 74.3059 61.6596 72.8834 63.3068L74.397 64.614ZM78.0659 57.9255C78.9479 55.3595 79.4684 53.3704 79.558 52.0269L77.5624 51.8939C77.492 52.9503 77.0525 54.7213 76.1745 57.2753L78.0659 57.9255ZM79.5525 52.0844C79.7182 50.7589 79.8002 49.3572 79.8002 47.8804H77.8002C77.8002 49.2836 77.7222 50.6019 77.5679 51.8364L79.5525 52.0844ZM79.8002 47.8804C79.8002 39.6464 77.1104 33.3543 71.6022 29.2019L70.3982 30.7989C75.29 34.4865 77.8002 40.1143 77.8002 47.8804H79.8002ZM71.613 29.2102C67.4508 25.9823 61.5592 24.4404 54.0802 24.4404V26.4404C61.3212 26.4404 66.7096 27.9385 70.3874 30.7906L71.613 29.2102ZM54.0802 24.4404H39.0802V26.4404H54.0802V24.4404ZM38.0802 25.4404V70.8004H40.0802V25.4404H38.0802ZM158.297 90.0004V91.0004H159.297V90.0004H158.297ZM127.937 90.0004H126.937V91.0004H127.937V90.0004ZM127.937 5.28043V4.28043H126.937V5.28043H127.937ZM158.297 5.28043H159.297V4.28043H158.297V5.28043ZM158.297 89.0004H127.937V91.0004H158.297V89.0004ZM128.937 90.0004V5.28043H126.937V90.0004H128.937ZM127.937 6.28043H158.297V4.28043H127.937V6.28043ZM157.297 5.28043V90.0004H159.297V5.28043H157.297ZM286.789 90.0004V91.0004H287.789V90.0004H286.789ZM260.509 90.0004H259.509V91.0004H260.509V90.0004ZM260.509 80.6404H261.509V78.4086L259.843 79.8941L260.509 80.6404ZM210.949 91.0804L210.736 92.0574L210.74 92.0582L210.949 91.0804ZM197.869 86.2804L197.402 87.1646L197.409 87.1682L197.869 86.2804ZM186.709 78.0004L185.984 78.6897L185.993 78.6987L186.709 78.0004ZM179.149 65.5204L178.215 65.8764L179.149 65.5204ZM187.549 18.4804L186.817 17.7995L186.81 17.8063L187.549 18.4804ZM267.469 7.68042L267.913 6.78422L267.909 6.78263L267.469 7.68042ZM284.029 24.7204L284.136 25.7146L285.45 25.5728L284.957 24.3473L284.029 24.7204ZM254.029 27.9604L253.293 28.6372L253.635 29.0088L254.136 28.9546L254.029 27.9604ZM218.389 25.4404L217.805 24.6285L217.797 24.6347L218.389 25.4404ZM210.829 33.9604L209.983 33.4271L209.979 33.4337L209.975 33.4405L210.829 33.9604ZM213.109 64.6804L212.343 65.3233L212.351 65.3321L213.109 64.6804ZM250.429 68.5204L249.878 67.6862L249.871 67.6906L250.429 68.5204ZM258.349 58.4404L259.337 58.5941L259.517 57.4404H258.349V58.4404ZM236.269 58.4404H235.269V59.4404H236.269V58.4404ZM236.269 39.2404V38.2404H235.269V39.2404H236.269ZM286.789 39.2404H287.789V38.2404H286.789V39.2404ZM286.789 89.0004H260.509V91.0004H286.789V89.0004ZM261.509 90.0004V80.6404H259.509V90.0004H261.509ZM259.843 79.8941C251.191 87.611 239.491 91.5204 224.629 91.5204V93.5204C239.848 93.5204 252.067 89.5098 261.175 81.3867L259.843 79.8941ZM224.629 91.5204C220.059 91.5204 215.569 91.0477 211.159 90.1026L210.74 92.0582C215.289 93.0331 219.92 93.5204 224.629 93.5204V91.5204ZM211.162 90.1034C206.855 89.1636 202.578 87.5954 198.329 85.3926L197.409 87.1682C201.801 89.4454 206.243 91.0772 210.736 92.0574L211.162 90.1034ZM198.336 85.3962C194.184 83.2026 190.549 80.5041 187.425 77.3021L185.993 78.6987C189.269 82.0567 193.074 84.8782 197.402 87.1646L198.336 85.3962ZM187.434 77.3112C184.421 74.1438 181.965 70.1038 180.084 65.1644L178.215 65.8764C180.173 71.017 182.757 75.297 185.985 78.6896L187.434 77.3112ZM180.084 65.1644C178.213 60.2531 177.269 54.7758 177.269 48.7204H175.269C175.269 54.985 176.246 60.7077 178.215 65.8764L180.084 65.1644ZM177.269 48.7204C177.269 37.0312 180.948 27.1969 188.288 19.1545L186.81 17.8063C179.11 26.2439 175.269 36.5696 175.269 48.7204H177.269ZM188.281 19.1612C198.592 8.06958 214.084 2.44043 234.949 2.44043V0.44043C213.734 0.44043 197.626 6.17127 186.817 17.7996L188.281 19.1612ZM234.949 2.44043C248.053 2.44043 258.729 4.50672 267.029 8.57821L267.909 6.78263C259.249 2.53413 248.245 0.44043 234.949 0.44043V2.44043ZM267.025 8.57662C274.917 12.4835 280.246 17.9926 283.101 25.0935L284.957 24.3473C281.893 16.7281 276.181 10.8773 267.913 6.78423L267.025 8.57662ZM283.922 23.7262L253.922 26.9662L254.136 28.9546L284.136 25.7146L283.922 23.7262ZM254.765 27.2836C249.984 22.0834 243.499 19.5204 235.429 19.5204V21.5204C243.039 21.5204 248.954 23.9174 253.293 28.6372L254.765 27.2836ZM235.429 19.5204C228.465 19.5204 222.568 21.2023 217.805 24.6286L218.973 26.2522C223.33 23.1185 228.794 21.5204 235.429 21.5204V19.5204ZM217.797 24.6347C214.951 26.7268 212.352 29.6704 209.983 33.4271L211.675 34.4937C213.947 30.8904 216.387 28.1539 218.981 26.246L217.797 24.6347ZM209.975 33.4405C207.615 37.3175 206.469 42.1509 206.469 47.8804H208.469C208.469 42.4099 209.563 37.9633 211.683 34.4803L209.975 33.4405ZM206.469 47.8804C206.469 54.7985 208.41 60.6367 212.343 65.3233L213.875 64.0375C210.288 59.7641 208.469 54.4023 208.469 47.8804H206.469ZM212.351 65.3321C217.456 71.2748 224.637 74.2004 233.749 74.2004V72.2004C225.101 72.2004 218.522 69.446 213.868 64.0287L212.351 65.3321ZM233.749 74.2004C240.395 74.2004 246.157 72.598 250.987 69.3502L249.871 67.6906C245.421 70.6828 240.063 72.2004 233.749 72.2004V74.2004ZM250.98 69.3546C255.807 66.1643 258.715 62.5948 259.337 58.5941L257.361 58.2867C256.863 61.486 254.491 64.6365 249.878 67.6862L250.98 69.3546ZM258.349 57.4404H236.269V59.4404H258.349V57.4404ZM237.269 58.4404V39.2404H235.269V58.4404H237.269ZM236.269 40.2404H286.789V38.2404H236.269V40.2404ZM285.789 39.2404V90.0004H287.789V39.2404H285.789ZM39.6802 258V259H40.6802V258H39.6802ZM9.32023 258H8.32023V259H9.32023V258ZM9.32023 173.28V172.28H8.32023V173.28H9.32023ZM39.6802 173.28H40.6802V172.28H39.6802V173.28ZM39.6802 257H9.32023V259H39.6802V257ZM10.3202 258V173.28H8.32023V258H10.3202ZM9.32023 174.28H39.6802V172.28H9.32023V174.28ZM38.6802 173.28V258H40.6802V173.28H38.6802ZM144.56 192.24V193.24H145.56V192.24H144.56ZM114.56 192.24V191.24H113.56V192.24H114.56ZM114.56 258V259H115.56V258H114.56ZM84.0802 258H83.0802V259H84.0802V258ZM84.0802 192.24H85.0802V191.24H84.0802V192.24ZM53.9602 192.24H52.9602V193.24H53.9602V192.24ZM53.9602 173.28V172.28H52.9602V173.28H53.9602ZM144.56 173.28H145.56V172.28H144.56V173.28ZM144.56 191.24H114.56V193.24H144.56V191.24ZM113.56 192.24V258H115.56V192.24H113.56ZM114.56 257H84.0802V259H114.56V257ZM85.0802 258V192.24H83.0802V258H85.0802ZM84.0802 191.24H53.9602V193.24H84.0802V191.24ZM54.9602 192.24V173.28H52.9602V192.24H54.9602ZM53.9602 174.28H144.56V172.28H53.9602V174.28ZM143.56 173.28V192.24H145.56V173.28H143.56ZM109.76 426V427H111.283L110.678 425.602L109.76 426ZM76.7602 426L75.8107 426.314L76.0375 427H76.7602V426ZM72.2002 412.2L73.1497 411.886L72.9229 411.2H72.2002V412.2ZM39.8002 412.2V411.2H39.0775L38.8507 411.886L39.8002 412.2ZM35.2402 426V427H35.9629L36.1897 426.314L35.2402 426ZM1.88023 426L0.962228 425.603L0.358887 427H1.88023V426ZM38.4802 341.28V340.28H37.8229L37.5622 340.883L38.4802 341.28ZM73.0402 341.28L73.9577 340.882L73.6967 340.28H73.0402V341.28ZM65.8402 393.48V394.48H67.2461L66.7849 393.152L65.8402 393.48ZM55.8802 364.8L56.8249 364.472L55.8687 361.719L54.9331 364.479L55.8802 364.8ZM46.1602 393.48L45.2131 393.159L44.7654 394.48H46.1602V393.48ZM109.76 425H76.7602V427H109.76V425ZM77.7097 425.686L73.1497 411.886L71.2507 412.514L75.8107 426.314L77.7097 425.686ZM72.2002 411.2H39.8002V413.2H72.2002V411.2ZM38.8507 411.886L34.2907 425.686L36.1897 426.314L40.7497 412.514L38.8507 411.886ZM35.2402 425H1.88023V427H35.2402V425ZM2.79823 426.397L39.3982 341.677L37.5622 340.883L0.962228 425.603L2.79823 426.397ZM38.4802 342.28H73.0402V340.28H38.4802V342.28ZM72.1227 341.678L108.842 426.398L110.678 425.602L73.9577 340.882L72.1227 341.678ZM66.7849 393.152L56.8249 364.472L54.9355 365.128L64.8955 393.808L66.7849 393.152ZM54.9331 364.479L45.2131 393.159L47.1073 393.801L56.8273 365.121L54.9331 364.479ZM46.1602 394.48H65.8402V392.48H46.1602V394.48ZM196.578 426V427H197.578V426H196.578ZM122.778 426H121.778V427H122.778V426ZM122.778 341.28V340.28H121.778V341.28H122.778ZM153.258 341.28H154.258V340.28H153.258V341.28ZM153.258 405.36H152.258V406.36H153.258V405.36ZM196.578 405.36H197.578V404.36H196.578V405.36ZM196.578 425H122.778V427H196.578V425ZM123.778 426V341.28H121.778V426H123.778ZM122.778 342.28H153.258V340.28H122.778V342.28ZM152.258 341.28V405.36H154.258V341.28H152.258ZM153.258 406.36H196.578V404.36H153.258V406.36ZM195.578 405.36V426H197.578V405.36H195.578ZM285.195 426V427H286.195V426H285.195ZM211.395 426H210.395V427H211.395V426ZM211.395 341.28V340.28H210.395V341.28H211.395ZM241.875 341.28H242.875V340.28H241.875V341.28ZM241.875 405.36H240.875V406.36H241.875V405.36ZM285.195 405.36H286.195V404.36H285.195V405.36ZM285.195 425H211.395V427H285.195V425ZM212.395 426V341.28H210.395V426H212.395ZM211.395 342.28H241.875V340.28H211.395V342.28ZM240.875 341.28V405.36H242.875V341.28H240.875ZM241.875 406.36H285.195V404.36H241.875V406.36ZM284.195 405.36V426H286.195V405.36H284.195Z"
     fill="url(#paint0_linear)"
     id="path4" />
  <defs
     id="defs6">
    <linearGradient
       id="paint0_linear"
       x1="147.466"
       y1="232"
       x2="147"
       y2="494.5"
       gradientUnits="userSpaceOnUse">
      <stop
         stop-color="#242426"
         id="stop9" />
      <stop
         offset="1"
         stop-color="#1D1D1F"
         stop-opacity="0.7"
         id="stop11" />
    </linearGradient>
  </defs>
</svg>
