<svg width="1259" height="564" viewBox="0 0 1259 564" fill="none" xmlns="http://www.w3.org/2000/svg">
<g opacity="0.5">
<path d="M2 9.19005H92.0977C104.231 9.19005 115.015 10.0888 124.452 11.8863C133.889 13.6838 141.678 16.3052 147.819 19.7504C153.96 23.0459 158.903 26.4911 162.648 30.0861C166.543 33.5314 170.138 37.5758 173.433 42.2193C182.72 55.5509 187.363 71.5787 187.363 90.3028C187.363 121.909 175.829 144.003 152.762 156.586C145.273 160.63 137.783 163.551 130.294 165.349C122.954 166.997 113.742 167.821 102.658 167.821H2V9.19005ZM57.4966 131.87H87.3794C95.6178 131.87 102.733 130.597 108.724 128.051C114.866 125.354 119.359 122.358 122.205 119.063C125.051 115.768 127.223 111.798 128.721 107.154C130.369 102.361 131.267 98.841 131.417 96.5941C131.717 94.1974 131.867 91.6509 131.867 88.9547C131.867 73.9754 126.998 62.8158 117.262 55.476C109.923 49.7839 99.3625 46.9378 85.5819 46.9378H57.4966V131.87ZM269.479 167.821H212.635V9.19005H269.479V167.821ZM498.828 167.821H449.622V150.295C432.996 165.124 410.602 172.539 382.442 172.539C373.754 172.539 365.216 171.64 356.828 169.843C348.59 168.045 340.426 165.049 332.338 160.855C324.399 156.661 317.434 151.493 311.442 145.352C305.601 139.21 300.882 131.421 297.287 121.984C293.692 112.547 291.895 102.062 291.895 90.5275C291.895 68.2084 298.935 49.3345 313.015 33.9058C332.787 12.6353 362.37 2 401.765 2C426.48 2 446.776 5.89461 462.654 13.6838C477.782 21.1735 488.118 31.8087 493.66 45.5897L437.489 51.6563C428.951 42.3691 417.343 37.7256 402.664 37.7256C389.932 37.7256 379.297 40.7963 370.759 46.9378C365.666 50.6826 360.948 56.0003 356.604 62.8907C352.41 69.7812 350.313 78.4692 350.313 88.9547C350.313 101.537 353.833 112.023 360.873 120.411C370.01 131.046 382.891 136.364 399.518 136.364C411.651 136.364 422.061 133.443 430.749 127.601C439.586 121.759 444.529 115.468 445.578 108.727H404.236V72.7771H498.828V167.821ZM590.047 167.821H533.202V9.19005H590.047V167.821ZM775.186 44.6909H719.015V167.821H661.946V44.6909H605.55V9.19005H775.186V44.6909ZM950.991 167.821H889.203L880.665 141.981H820.001L811.463 167.821H749.001L817.53 9.19005H882.238L950.991 167.821ZM868.757 106.93L850.109 53.2291L831.909 106.93H868.757ZM1102.31 167.821H964.131V9.19005H1021.2V129.174H1102.31V167.821ZM1257 167.821H1118.82V9.19005H1175.89V129.174H1257V167.821Z" stroke="url(#paint0_linear)" stroke-width="3"/>
<path d="M2 203.921H92.0977C104.231 203.921 115.015 204.819 124.452 206.617C133.889 208.414 141.678 211.036 147.819 214.481C153.96 217.776 158.903 221.222 162.648 224.817C166.543 228.262 170.138 232.306 173.433 236.95C182.72 250.281 187.363 266.309 187.363 285.033C187.363 316.64 175.829 338.734 152.762 351.317C145.273 355.361 137.783 358.282 130.294 360.079C122.954 361.727 113.742 362.551 102.658 362.551H2V203.921ZM57.4966 326.601H87.3794C95.6178 326.601 102.733 325.328 108.724 322.781C114.866 320.085 119.359 317.089 122.205 313.793C125.051 310.498 127.223 306.529 128.721 301.885C130.369 297.092 131.267 293.571 131.417 291.325C131.717 288.928 131.867 286.381 131.867 283.685C131.867 268.706 126.998 257.546 117.262 250.206C109.923 244.514 99.3625 241.668 85.5819 241.668H57.4966V326.601ZM269.479 362.551H212.635V203.921H269.479V362.551ZM498.828 362.551H449.622V345.025C432.996 359.855 410.602 367.269 382.442 367.269C373.754 367.269 365.216 366.371 356.828 364.573C348.59 362.776 340.426 359.78 332.338 355.586C324.399 351.391 317.434 346.224 311.442 340.082C305.601 333.941 300.882 326.151 297.287 316.714C293.692 307.278 291.895 296.792 291.895 285.258C291.895 262.939 298.935 244.065 313.015 228.636C332.787 207.366 362.37 196.73 401.765 196.73C426.48 196.73 446.776 200.625 462.654 208.414C477.782 215.904 488.118 226.539 493.66 240.32L437.489 246.387C428.951 237.1 417.343 232.456 402.664 232.456C389.932 232.456 379.297 235.527 370.759 241.668C365.666 245.413 360.948 250.731 356.604 257.621C352.41 264.512 350.313 273.2 350.313 283.685C350.313 296.268 353.833 306.753 360.873 315.142C370.01 325.777 382.891 331.095 399.518 331.095C411.651 331.095 422.061 328.174 430.749 322.332C439.586 316.49 444.529 310.198 445.578 303.458H404.236V267.508H498.828V362.551ZM590.047 362.551H533.202V203.921H590.047V362.551ZM775.186 239.421H719.015V362.551H661.946V239.421H605.55V203.921H775.186V239.421ZM950.991 362.551H889.203L880.665 336.712H820.001L811.463 362.551H749.001L817.53 203.921H882.238L950.991 362.551ZM868.757 301.66L850.109 247.96L831.909 301.66H868.757ZM1102.31 362.551H964.131V203.921H1021.2V323.905H1102.31V362.551ZM1257 362.551H1118.82V203.921H1175.89V323.905H1257V362.551Z" stroke="url(#paint1_linear)" stroke-width="3"/>
<path d="M2 398.651H92.0977C104.231 398.651 115.015 399.55 124.452 401.347C133.889 403.145 141.678 405.766 147.819 409.211C153.96 412.507 158.903 415.952 162.648 419.547C166.543 422.992 170.138 427.037 173.433 431.68C182.72 445.012 187.363 461.04 187.363 479.764C187.363 511.37 175.829 533.464 152.762 546.047C145.273 550.091 137.783 553.012 130.294 554.81C122.954 556.458 113.742 557.281 102.658 557.281H2V398.651ZM57.4966 521.331H87.3794C95.6178 521.331 102.733 520.058 108.724 517.512C114.866 514.815 119.359 511.819 122.205 508.524C125.051 505.229 127.223 501.259 128.721 496.615C130.369 491.822 131.267 488.302 131.417 486.055C131.717 483.658 131.867 481.112 131.867 478.416C131.867 463.436 126.998 452.277 117.262 444.937C109.923 439.245 99.3625 436.399 85.5819 436.399H57.4966V521.331ZM269.479 557.281H212.635V398.651H269.479V557.281ZM498.828 557.281H449.622V539.756C432.996 554.585 410.602 562 382.442 562C373.754 562 365.216 561.101 356.828 559.304C348.59 557.506 340.426 554.51 332.338 550.316C324.399 546.122 317.434 540.954 311.442 534.813C305.601 528.671 300.882 520.882 297.287 511.445C293.692 502.008 291.895 491.523 291.895 479.988C291.895 457.669 298.935 438.795 313.015 423.367C332.787 402.096 362.37 391.461 401.765 391.461C426.48 391.461 446.776 395.356 462.654 403.145C477.782 410.634 488.118 421.27 493.66 435.051L437.489 441.117C428.951 431.83 417.343 427.187 402.664 427.187C389.932 427.187 379.297 430.257 370.759 436.399C365.666 440.144 360.948 445.461 356.604 452.352C352.41 459.242 350.313 467.93 350.313 478.416C350.313 490.998 353.833 501.484 360.873 509.872C370.01 520.507 382.891 525.825 399.518 525.825C411.651 525.825 422.061 522.904 430.749 517.062C439.586 511.22 444.529 504.929 445.578 498.188H404.236V462.238H498.828V557.281ZM590.047 557.281H533.202V398.651H590.047V557.281ZM775.186 434.152H719.015V557.281H661.946V434.152H605.55V398.651H775.186V434.152ZM950.991 557.281H889.203L880.665 531.442H820.001L811.463 557.281H749.001L817.53 398.651H882.238L950.991 557.281ZM868.757 496.391L850.109 442.69L831.909 496.391H868.757ZM1102.31 557.281H964.131V398.651H1021.2V518.635H1102.31V557.281ZM1257 557.281H1118.82V398.651H1175.89V518.635H1257V557.281Z" stroke="url(#paint2_linear)" stroke-width="3"/>
</g>
<defs>
<linearGradient id="paint0_linear" x1="629.351" y1="188.773" x2="629.351" y2="561.85" gradientUnits="userSpaceOnUse">
<stop stop-color="#242426"/>
<stop offset="1" stop-color="#161617" stop-opacity="0"/>
<stop offset="1" stop-color="#1D1D1F" stop-opacity="0"/>
</linearGradient>
<linearGradient id="paint1_linear" x1="629.351" y1="188.773" x2="629.351" y2="561.85" gradientUnits="userSpaceOnUse">
<stop stop-color="#242426"/>
<stop offset="1" stop-color="#161617" stop-opacity="0"/>
<stop offset="1" stop-color="#1D1D1F" stop-opacity="0"/>
</linearGradient>
<linearGradient id="paint2_linear" x1="629.351" y1="188.773" x2="629.351" y2="561.85" gradientUnits="userSpaceOnUse">
<stop stop-color="#242426"/>
<stop offset="1" stop-color="#161617" stop-opacity="0"/>
<stop offset="1" stop-color="#1D1D1F" stop-opacity="0"/>
</linearGradient>
</defs>
</svg>
