<?xml version="1.0" encoding="UTF-8" standalone="no"?>
<svg
   xmlns:dc="http://purl.org/dc/elements/1.1/"
   xmlns:cc="http://creativecommons.org/ns#"
   xmlns:rdf="http://www.w3.org/1999/02/22-rdf-syntax-ns#"
   xmlns:svg="http://www.w3.org/2000/svg"
   xmlns="http://www.w3.org/2000/svg"
   xmlns:sodipodi="http://sodipodi.sourceforge.net/DTD/sodipodi-0.dtd"
   xmlns:inkscape="http://www.inkscape.org/namespaces/inkscape"
   width="125"
   height="24"
   viewBox="0 0 125 24"
   fill="none"
   id="svg2"
   version="1.1"
   inkscape:version="0.91 r13725"
   sodipodi:docname="logo.svg">
  <metadata
     id="metadata22">
    <rdf:RDF>
      <cc:Work
         rdf:about="">
        <dc:format>image/svg+xml</dc:format>
        <dc:type
           rdf:resource="http://purl.org/dc/dcmitype/StillImage" />
        <dc:title></dc:title>
      </cc:Work>
    </rdf:RDF>
  </metadata>
  <sodipodi:namedview
     pagecolor="#ffffff"
     bordercolor="#666666"
     borderopacity="1"
     objecttolerance="10"
     gridtolerance="10"
     guidetolerance="10"
     inkscape:pageopacity="0"
     inkscape:pageshadow="2"
     inkscape:window-width="852"
     inkscape:window-height="480"
     id="namedview20"
     showgrid="false"
     inkscape:zoom="3.04"
     inkscape:cx="62.5"
     inkscape:cy="12"
     inkscape:window-x="0"
     inkscape:window-y="0"
     inkscape:window-maximized="0"
     inkscape:current-layer="svg2" />
  <g
     clip-path="url(#clip0)"
     id="g4">
    <path
       d="M8.00004 5L16 18H0L8.00004 5Z"
       fill="url(#paint0_linear)"
       id="path6" />
    <path
       d="M32.861 10.2051L31.3827 11.653C30.9305 10.7244 30.1421 10.2601 29.0175 10.2601C28.8321 10.2601 28.6406 10.2784 28.4435 10.315C28.2581 10.3517 28.0667 10.4494 27.8696 10.6083C27.6725 10.7549 27.574 10.9565 27.574 11.2131C27.574 11.4941 27.7015 11.7079 27.9567 11.8546C28.2116 11.989 28.6755 12.1173 29.3479 12.2395L30.7566 12.5144C31.4522 12.6488 32.0146 12.9359 32.4437 13.3758C32.8725 13.8034 33.0871 14.3716 33.0871 15.0803C33.0871 15.9478 32.7276 16.687 32.0088 17.2978C31.29 17.9088 30.3451 18.2144 29.174 18.2144C27.4001 18.2144 26.0088 17.6645 25 16.5648L26.5652 15.2269C27.1218 16.0088 27.9567 16.3999 29.0697 16.3999C29.6377 16.3999 30.0609 16.2838 30.3392 16.0516C30.629 15.8195 30.7741 15.5751 30.7741 15.3185C30.7741 15.0741 30.6697 14.8909 30.4609 14.7687C30.2522 14.6343 29.9277 14.5243 29.487 14.4388L28.4087 14.2372C26.3913 13.8584 25.3827 12.942 25.3827 11.488C25.3827 10.5961 25.7363 9.87517 26.4435 9.32534C27.1625 8.77551 28.055 8.5006 29.1218 8.5006C30.687 8.5006 31.9334 9.06875 32.861 10.2051ZM34.8 8.77551H36.8869V9.60025C37.5477 8.86714 38.3419 8.5006 39.2695 8.5006C40.4056 8.5006 41.3332 8.94658 42.0522 9.83852C42.8289 10.816 43.2174 12.0134 43.2174 13.4308C43.2174 14.6404 42.9274 15.6728 42.3479 16.5281C41.5942 17.6523 40.5622 18.2144 39.2521 18.2144C38.3709 18.2144 37.5826 17.8723 36.8869 17.1879V20.9268H34.8V8.77551ZM41.0783 13.3208C41.0783 12.4411 40.8637 11.769 40.4347 11.3047C40.0056 10.8404 39.5071 10.6083 38.939 10.6083C38.255 10.6083 37.7333 10.8771 37.3738 11.4147C37.026 11.9523 36.8521 12.5816 36.8521 13.3025C36.8521 14.1211 37.0375 14.7992 37.4087 15.3368C37.7911 15.8622 38.3187 16.1249 38.9912 16.1249C39.2229 16.1249 39.449 16.0822 39.6695 15.9966C39.8897 15.9111 40.11 15.7767 40.3305 15.5934C40.5622 15.3979 40.742 15.1047 40.8695 14.7137C41.0086 14.3227 41.0783 13.8584 41.0783 13.3208ZM53.061 13.7973H46.6261C46.6378 13.9195 46.6609 14.06 46.6956 14.2188C46.7305 14.3777 46.8058 14.5732 46.9217 14.8053C47.0378 15.0253 47.177 15.2269 47.3391 15.4102C47.513 15.5934 47.7508 15.7523 48.0522 15.8867C48.3537 16.0088 48.6957 16.07 49.0784 16.07C50.1218 16.07 50.8813 15.6484 51.3565 14.8053L53.1305 15.8867C52.0407 17.4383 50.626 18.2144 48.8869 18.2144C47.5652 18.2144 46.487 17.7745 45.6522 16.8947C44.8292 16.0027 44.4175 14.8053 44.4175 13.3025C44.4175 11.7507 44.8406 10.5655 45.687 9.74687C46.5334 8.91602 47.5652 8.5006 48.7825 8.5006C49.5711 8.5006 50.2552 8.65943 50.8348 8.97712C51.426 9.28257 51.8726 9.7041 52.1739 10.2417C52.487 10.7671 52.7131 11.3231 52.8522 11.9096C52.9914 12.496 53.061 13.1253 53.061 13.7973ZM46.6956 12.1845H50.7653C50.7538 12.0256 50.7189 11.8607 50.6609 11.6896C50.6145 11.5063 50.5277 11.2986 50.4001 11.0665C50.2726 10.8343 50.0696 10.6449 49.7913 10.4983C49.5247 10.3395 49.2001 10.2601 48.8174 10.2601C48.4232 10.2601 48.0754 10.3395 47.7739 10.4983C47.4842 10.6449 47.2639 10.8465 47.113 11.1031C46.9739 11.3597 46.8754 11.5674 46.8173 11.7263C46.771 11.8729 46.7305 12.0256 46.6956 12.1845ZM63.157 17.9393H60.6179L57.9917 13.834L56.7743 15.0986V17.9393H54.7047V5H56.7743V12.2761L60.1657 8.77551H62.8265L59.5049 12.2761L63.157 17.9393ZM63.0875 10.3334V8.77551H64.357V5.51318H66.444V8.77551H68.3048V10.3334H66.444V14.8786C66.444 15.3674 66.5135 15.6912 66.6527 15.85C66.8149 16.0333 67.0757 16.1249 67.4352 16.1249C67.7599 16.1249 68.0496 16.0883 68.3048 16.015V17.8661C67.5628 17.9639 67.0642 18.0128 66.8091 18.0128C65.9049 18.0128 65.2671 17.8355 64.8961 17.4813C64.5366 17.1268 64.357 16.5648 64.357 15.795V10.3334H63.0875ZM69.5828 8.77551H71.6002V10.0768C72.0524 9.07488 72.9161 8.57391 74.1915 8.57391H74.3654V10.8282C72.9625 10.8282 72.0927 11.3903 71.7568 12.5144C71.6524 12.8565 71.6002 13.3574 71.6002 14.0172V17.9393H69.5828V8.77551ZM76.8437 17.9393H74.548V15.4285H76.8437V17.9393ZM86.496 17.9393H84.4264V17.0597C83.812 17.8293 83.0061 18.2144 82.009 18.2144C80.9772 18.2144 80.0728 17.8234 79.296 17.0413C78.5306 16.2471 78.1481 15.0803 78.1481 13.5407C78.1481 11.9768 78.5306 10.7488 79.296 9.85684C80.0728 8.95267 81.006 8.5006 82.0958 8.5006C82.5132 8.5006 82.9366 8.58612 83.3654 8.75719C83.8061 8.92824 84.1598 9.18483 84.4264 9.52694V5H86.496V17.9393ZM80.3219 13.3025C80.3219 14.0844 80.4902 14.7687 80.8263 15.3552C81.1626 15.9294 81.6844 16.2166 82.3915 16.2166C82.9712 16.2166 83.4525 15.9783 83.8349 15.5018C84.2176 15.0131 84.4089 14.3533 84.4089 13.5224C84.4089 12.6793 84.2583 11.9706 83.9569 11.3964C83.6554 10.8221 83.1393 10.535 82.409 10.535C81.7712 10.535 81.2612 10.7977 80.8785 11.3231C80.5077 11.8485 80.3219 12.5083 80.3219 13.3025ZM90.8613 7.34594H88.7917V5.1283H90.8613V7.34594ZM90.8613 17.9393H88.7917V8.77551H90.8613V17.9393ZM101.053 8.77551V17.4813C101.053 19.8272 99.6555 21 96.8615 21C96.0961 21 95.4468 20.9146 94.9136 20.7435C94.3919 20.5725 93.9977 20.3282 93.7309 20.0104C93.4643 19.6927 93.2728 19.3995 93.157 19.1307C93.0526 18.8618 92.9599 18.5319 92.8787 18.1409H95.1744C95.2556 18.5564 95.476 18.8496 95.8353 19.0207C96.1946 19.1917 96.5542 19.2774 96.9137 19.2774C97.5859 19.2774 98.0962 19.1245 98.444 18.8191C98.8033 18.5137 98.9832 17.9882 98.9832 17.243V16.4365C98.2991 17.0841 97.4237 17.4078 96.3571 17.4078C95.3251 17.4078 94.4382 17.0474 93.6962 16.3265C92.9657 15.5934 92.6006 14.4999 92.6006 13.0459C92.6006 11.5552 92.9945 10.425 93.7831 9.65524C94.5716 8.88547 95.4875 8.5006 96.531 8.5006C97.6325 8.5006 98.4498 8.91602 98.9832 9.74687V8.77551H101.053ZM99.0352 13.0642C99.0352 12.3067 98.8498 11.6835 98.4788 11.1948C98.1077 10.706 97.5744 10.4617 96.8788 10.4617C96.2875 10.4617 95.7831 10.6755 95.3658 11.1031C94.9483 11.5308 94.7397 12.16 94.7397 12.9909C94.7397 13.724 94.9251 14.3105 95.2961 14.7504C95.6788 15.1902 96.212 15.4102 96.8961 15.4102C97.5686 15.4102 98.0903 15.2024 98.4613 14.787C98.844 14.3594 99.0352 13.7851 99.0352 13.0642ZM105.349 7.34594H103.279V5.1283H105.349V7.34594ZM105.349 17.9393H103.279V8.77551H105.349V17.9393ZM106.566 10.3334V8.77551H107.836V5.51318H109.922V8.77551H111.783V10.3334H109.922V14.8786C109.922 15.3674 109.992 15.6912 110.131 15.85C110.293 16.0333 110.554 16.1249 110.914 16.1249C111.238 16.1249 111.528 16.0883 111.783 16.015V17.8661C111.041 17.9639 110.543 18.0128 110.288 18.0128C109.383 18.0128 108.746 17.8355 108.375 17.4813C108.015 17.1268 107.836 16.5648 107.836 15.795V10.3334H106.566ZM121.017 17.9393H118.548L118.496 17.2246C117.742 17.8477 116.89 18.1593 115.939 18.1593C114.977 18.1593 114.206 17.8904 113.626 17.3529C113.058 16.8153 112.774 16.1494 112.774 15.3552C112.774 13.6812 113.806 12.6488 115.87 12.2578C117.041 12.0256 117.933 11.7996 118.548 11.5797C118.548 11.152 118.444 10.816 118.235 10.5716C118.038 10.3273 117.644 10.2051 117.052 10.2051C115.881 10.2051 115.296 10.6633 115.296 11.5797L113.174 11.4514C113.185 11.3047 113.197 11.1825 113.209 11.0848C113.22 10.9871 113.255 10.8282 113.313 10.6083C113.371 10.3883 113.446 10.199 113.539 10.0401C113.632 9.86906 113.771 9.68578 113.957 9.4903C114.154 9.28257 114.38 9.11152 114.635 8.97712C114.89 8.84272 115.22 8.73274 115.626 8.64722C116.032 8.54946 116.484 8.5006 116.983 8.5006C119.418 8.5006 120.635 9.36811 120.635 11.1031V16.4548C120.635 16.8092 120.652 17.078 120.687 17.2613C120.733 17.4324 120.843 17.6583 121.017 17.9393ZM118.548 14.6037V13.3758C118.096 13.6079 117.545 13.779 116.896 13.8889C116.606 13.9378 116.368 13.9867 116.183 14.0356C115.997 14.0722 115.8 14.1394 115.591 14.2372C115.383 14.3227 115.226 14.4449 115.122 14.6037C115.029 14.7504 114.983 14.9336 114.983 15.1536C114.983 15.4835 115.099 15.7523 115.331 15.96C115.563 16.1677 115.922 16.2716 116.409 16.2716C116.954 16.2716 117.446 16.131 117.887 15.85C118.328 15.5568 118.548 15.1413 118.548 14.6037ZM125 17.9393H122.878V5H125V17.9393Z"
       fill="#D4D4D4"
       id="path8" />
  </g>
  <defs
     id="defs10">
    <linearGradient
       id="paint0_linear"
       x1="14.8724"
       y1="8.67209"
       x2="0.169936"
       y2="18.2951"
       gradientUnits="userSpaceOnUse">
      <stop
         stop-color="#4DD132"
         stop-opacity="0.3"
         id="stop13" />
      <stop
         offset="0.987013"
         stop-color="#4DD132"
         id="stop15" />
    </linearGradient>
    <clipPath
       id="clip0">
      <rect
         width="125"
         height="24"
         fill="white"
         id="rect18" />
    </clipPath>
  </defs>
</svg>
