<?xml version="1.0" encoding="UTF-8" standalone="no"?>
<svg
   xmlns:dc="http://purl.org/dc/elements/1.1/"
   xmlns:cc="http://creativecommons.org/ns#"
   xmlns:rdf="http://www.w3.org/1999/02/22-rdf-syntax-ns#"
   xmlns:svg="http://www.w3.org/2000/svg"
   xmlns="http://www.w3.org/2000/svg"
   xmlns:sodipodi="http://sodipodi.sourceforge.net/DTD/sodipodi-0.dtd"
   xmlns:inkscape="http://www.inkscape.org/namespaces/inkscape"
   width="140"
   height="24"
   viewBox="0 0 140 24"
   fill="none"
   id="svg2"
   version="1.1"
   inkscape:version="0.91 r13725"
   sodipodi:docname="spektr-logo.svg">
  <metadata
     id="metadata43">
    <rdf:RDF>
      <cc:Work
         rdf:about="">
        <dc:format>image/svg+xml</dc:format>
        <dc:type
           rdf:resource="http://purl.org/dc/dcmitype/StillImage" />
        <dc:title></dc:title>
      </cc:Work>
    </rdf:RDF>
  </metadata>
  <sodipodi:namedview
     pagecolor="#ffffff"
     bordercolor="#666666"
     borderopacity="1"
     objecttolerance="10"
     gridtolerance="10"
     guidetolerance="10"
     inkscape:pageopacity="0"
     inkscape:pageshadow="2"
     inkscape:window-width="852"
     inkscape:window-height="480"
     id="namedview41"
     showgrid="false"
     inkscape:zoom="2.7142857"
     inkscape:cx="70"
     inkscape:cy="12"
     inkscape:window-x="0"
     inkscape:window-y="0"
     inkscape:window-maximized="0"
     inkscape:current-layer="svg2" />
  <path
     d="M24 13.205L26.655 13.01C26.865 13.79 27.63 14.18 28.95 14.18C30.17 14.18 30.78 13.92 30.78 13.4C30.78 13.17 30.65 13.005 30.39 12.905C30.13 12.795 29.755 12.715 29.265 12.665L26.955 12.41C26.235 12.33 25.635 12.12 25.155 11.78C24.675 11.43 24.435 10.92 24.435 10.25C24.435 9.39 24.84 8.74 25.65 8.3C26.46 7.85 27.545 7.625 28.905 7.625C30.145 7.625 31.14 7.835 31.89 8.255C32.64 8.675 33.115 9.27 33.315 10.04L30.75 10.205C30.59 9.885 30.35 9.65 30.03 9.5C29.72 9.35 29.275 9.275 28.695 9.275C28.195 9.275 27.785 9.34 27.465 9.47C27.145 9.6 26.985 9.785 26.985 10.025C26.985 10.155 27.04 10.27 27.15 10.37C27.27 10.46 27.445 10.535 27.675 10.595C27.905 10.645 28.11 10.685 28.29 10.715C28.48 10.735 28.715 10.755 28.995 10.775L30.795 10.94C32.495 11.09 33.345 11.845 33.345 13.205C33.345 13.985 32.965 14.625 32.205 15.125C31.445 15.615 30.27 15.86 28.68 15.86C25.92 15.86 24.36 14.975 24 13.205Z"
     fill="#D4D4D4"
     id="path4" />
  <path
     d="M35.0401 8H37.5301V8.87C38.3001 8.17 39.2701 7.82 40.4401 7.82C41.6801 7.82 42.6851 8.19 43.4551 8.93C44.2351 9.66 44.6251 10.63 44.6251 11.84C44.6251 12.9 44.2701 13.825 43.5601 14.615C42.8601 15.405 41.8501 15.8 40.5301 15.8C39.3301 15.8 38.3301 15.43 37.5301 14.69V18.47H35.0401V8ZM37.5301 11.825C37.5301 12.555 37.7551 13.115 38.2051 13.505C38.6651 13.895 39.2201 14.09 39.8701 14.09C40.5001 14.09 41.0301 13.905 41.4601 13.535C41.8901 13.155 42.1051 12.575 42.1051 11.795C42.1051 11.555 42.0701 11.32 42.0001 11.09C41.9401 10.85 41.8301 10.61 41.6701 10.37C41.5201 10.12 41.2851 9.92 40.9651 9.77C40.6451 9.62 40.2701 9.545 39.8401 9.545C39.0701 9.545 38.4901 9.765 38.1001 10.205C37.7201 10.645 37.5301 11.185 37.5301 11.825Z"
     fill="#D4D4D4"
     id="path6" />
  <path
     d="M53.3551 13.055L55.9201 13.31C55.8101 13.52 55.6751 13.725 55.5151 13.925C55.3551 14.125 55.1251 14.35 54.8251 14.6C54.5351 14.84 54.2101 15.055 53.8501 15.245C53.5001 15.425 53.0551 15.575 52.5151 15.695C51.9851 15.825 51.4201 15.89 50.8201 15.89C49.8801 15.89 49.0601 15.76 48.3601 15.5C47.6701 15.23 47.1451 14.88 46.7851 14.45C46.4251 14.02 46.1651 13.58 46.0051 13.13C45.8451 12.67 45.7651 12.2 45.7651 11.72C45.7651 10.46 46.2251 9.475 47.1451 8.765C48.0751 8.055 49.3101 7.7 50.8501 7.7C52.4601 7.7 53.6901 8.105 54.5401 8.915C55.4001 9.725 55.8301 10.73 55.8301 11.93V12.215L48.3001 12.215C48.5601 13.475 49.4451 14.105 50.9551 14.105C51.4351 14.105 51.9001 14.02 52.3501 13.85C52.8001 13.67 53.1351 13.405 53.3551 13.055ZM48.3751 10.85H53.1001C53.0301 10.36 52.7751 10.005 52.3351 9.785C51.8951 9.555 51.3851 9.44 50.8051 9.44C50.2151 9.44 49.7001 9.56 49.2601 9.8C48.8201 10.03 48.5251 10.38 48.3751 10.85Z"
     fill="#D4D4D4"
     id="path8" />
  <path
     d="M67.1101 15.59H63.9601L61.4251 12.365L60.0151 13.565V15.59H57.5551V5H60.0151V11.045L63.5101 8L66.7201 8L63.1951 10.955L67.1101 15.59Z"
     fill="#D4D4D4"
     id="path10" />
  <path
     d="M69.4002 9.455H68.1702V8H69.4002V5.975L71.8602 5.975V8L73.5552 8V9.455H71.8602V12.89C71.8602 13.25 71.9252 13.495 72.0552 13.625C72.1952 13.745 72.4552 13.805 72.8352 13.805C72.8452 13.805 73.0902 13.79 73.5702 13.76V15.53C72.8502 15.61 72.1852 15.65 71.5752 15.65C70.1252 15.65 69.4002 14.99 69.4002 13.67V9.455Z"
     fill="#D4D4D4"
     id="path12" />
  <path
     d="M81.1252 9.98C80.8052 9.96 80.5852 9.95 80.4652 9.95C79.5652 9.95 78.9002 10.135 78.4702 10.505C78.1102 10.805 77.9302 11.28 77.9302 11.93V15.59H75.4402C75.4402 12.6259 75.4402 10.9641 75.4402 8H77.9302V9.29C78.4702 8.3 79.5102 7.785 81.0502 7.745H81.1252V9.98Z"
     fill="#D4D4D4"
     id="path14" />
  <path
     d="M84.3801 15.59H81.9201V13.445H84.3801V15.59Z"
     fill="#D4D4D4"
     id="path16" />
  <path
     d="M95.48 15.59H93.05V14.675C92.3 15.465 91.295 15.86 90.035 15.86C88.885 15.86 87.91 15.51 87.11 14.81C86.32 14.11 85.925 13.125 85.925 11.855C85.925 10.665 86.31 9.685 87.08 8.915C87.85 8.145 88.835 7.76 90.035 7.76C90.585 7.76 91.13 7.86 91.67 8.06C92.21 8.25 92.67 8.495 93.05 8.795V5H95.48V15.59ZM93.095 11.765C93.095 11.085 92.885 10.545 92.465 10.145C92.055 9.735 91.47 9.53 90.71 9.53C90.03 9.53 89.485 9.74 89.075 10.16C88.675 10.58 88.475 11.12 88.475 11.78C88.475 12.44 88.655 13.005 89.015 13.475C89.375 13.945 89.955 14.18 90.755 14.18C91.495 14.18 92.07 13.96 92.48 13.52C92.89 13.08 93.095 12.495 93.095 11.765Z"
     fill="#D4D4D4"
     id="path18" />
  <path
     d="M100.16 7.04H97.7V5.36L100.16 5.36V7.04ZM100.16 15.59H97.7V8H100.16V15.59Z"
     fill="#D4D4D4"
     id="path20" />
  <path
     d="M111.432 8V14.72C111.432 15.04 111.417 15.325 111.387 15.575C111.357 15.825 111.292 16.115 111.192 16.445C111.092 16.775 110.927 17.06 110.697 17.3C110.477 17.54 110.192 17.765 109.842 17.975C109.502 18.195 109.052 18.36 108.492 18.47C107.932 18.59 107.287 18.65 106.557 18.65C104.757 18.65 103.487 18.23 102.747 17.39C102.657 17.29 102.572 17.185 102.492 17.075C102.422 16.975 102.362 16.885 102.312 16.805C102.272 16.725 102.227 16.63 102.177 16.52C102.127 16.41 102.092 16.335 102.072 16.295C102.062 16.255 102.042 16.18 102.012 16.07L101.952 15.89H104.622C104.762 16.23 104.977 16.485 105.267 16.655C105.557 16.825 106.072 16.91 106.812 16.91C107.522 16.91 108.077 16.75 108.477 16.43C108.877 16.12 109.077 15.64 109.077 14.99V14.015C108.217 14.845 107.152 15.26 105.882 15.26C105.402 15.26 104.937 15.195 104.487 15.065C104.037 14.935 103.607 14.735 103.197 14.465C102.797 14.195 102.472 13.815 102.222 13.325C101.982 12.835 101.862 12.265 101.862 11.615C101.862 10.945 101.982 10.355 102.222 9.845C102.472 9.325 102.802 8.92 103.212 8.63C103.622 8.34 104.062 8.125 104.532 7.985C105.002 7.835 105.492 7.76 106.002 7.76C107.272 7.76 108.297 8.14 109.077 8.9V8H111.432ZM109.062 11.48C109.062 10.84 108.827 10.35 108.357 10.01C107.887 9.67 107.327 9.5 106.677 9.5C106.037 9.5 105.502 9.675 105.072 10.025C104.642 10.375 104.427 10.865 104.427 11.495C104.427 11.645 104.447 11.81 104.487 11.99C104.537 12.16 104.627 12.375 104.757 12.635C104.887 12.895 105.117 13.11 105.447 13.28C105.777 13.45 106.182 13.535 106.662 13.535C107.292 13.535 107.847 13.37 108.327 13.04C108.817 12.71 109.062 12.19 109.062 11.48Z"
     fill="#D4D4D4"
     id="path22" />
  <path
     d="M116.112 7.04H113.652V5.36L116.112 5.36V7.04ZM116.112 15.59H113.652V8H116.112V15.59Z"
     fill="#D4D4D4"
     id="path24" />
  <path
     d="M119.564 9.455H118.334V8L119.564 8V5.975L122.024 5.975V8H123.719V9.455H122.024V12.89C122.024 13.25 122.089 13.495 122.219 13.625C122.359 13.745 122.619 13.805 122.999 13.805C123.009 13.805 123.254 13.79 123.734 13.76V15.53C123.014 15.61 122.349 15.65 121.739 15.65C120.289 15.65 119.564 14.99 119.564 13.67V9.455Z"
     fill="#D4D4D4"
     id="path26" />
  <path
     d="M135.677 15.59H132.977C132.877 15.27 132.827 15 132.827 14.78C132.457 15 132.157 15.17 131.927 15.29C131.707 15.4 131.372 15.51 130.922 15.62C130.482 15.74 130.007 15.8 129.497 15.8C128.877 15.8 128.332 15.74 127.862 15.62C127.402 15.5 127.042 15.355 126.782 15.185C126.532 15.005 126.327 14.795 126.167 14.555C126.017 14.305 125.917 14.08 125.867 13.88C125.827 13.68 125.807 13.475 125.807 13.265C125.807 12.885 125.857 12.555 125.957 12.275C126.067 11.985 126.237 11.755 126.467 11.585C126.697 11.405 126.932 11.265 127.172 11.165C127.412 11.055 127.737 10.98 128.147 10.94C128.557 10.89 128.917 10.86 129.227 10.85C129.547 10.83 129.967 10.82 130.487 10.82H132.842V10.505C132.842 9.795 132.127 9.44 130.697 9.44C129.457 9.44 128.792 9.675 128.702 10.145C127.142 10.125 126.307 10.115 126.197 10.115C126.297 9.565 126.507 9.12 126.827 8.78C127.497 8.08 128.812 7.73 130.772 7.73C132.972 7.73 134.357 8.16 134.927 9.02C135.197 9.42 135.332 10.115 135.332 11.105V14.66C135.332 14.75 135.337 14.835 135.347 14.915C135.357 14.985 135.367 15.045 135.377 15.095C135.387 15.135 135.407 15.185 135.437 15.245C135.467 15.305 135.487 15.345 135.497 15.365C135.507 15.375 135.537 15.415 135.587 15.485C135.637 15.545 135.667 15.58 135.677 15.59ZM132.827 12.08C132.757 11.5161 131.372 12.08 131.372 12.08C130.882 12.08 130.482 12.095 130.172 12.125C129.862 12.145 129.557 12.19 129.257 12.26C128.967 12.33 128.752 12.44 128.612 12.59C128.472 12.74 128.402 12.935 128.402 13.175C128.402 13.825 128.957 14.15 130.067 14.15C130.797 14.15 131.437 13.97 131.987 13.61C132.547 13.25 132.827 12.8 132.827 12.26C132.827 12.26 132.835 12.1498 132.827 12.08Z"
     fill="#D4D4D4"
     id="path28" />
  <path
     d="M139.997 15.59L137.537 15.59V5H139.997V15.59Z"
     fill="#D4D4D4"
     id="path30" />
  <path
     d="M7 5L14 18H0L7 5Z"
     fill="url(#paint0_linear)"
     id="path32" />
  <defs
     id="defs34">
    <linearGradient
       id="paint0_linear"
       x1="7"
       y1="5"
       x2="7"
       y2="18"
       gradientUnits="userSpaceOnUse">
      <stop
         stop-color="#1BBC35"
         stop-opacity="0"
         id="stop37" />
      <stop
         offset="1"
         stop-color="#1BBC35"
         id="stop39" />
    </linearGradient>
  </defs>
</svg>
