<svg width="539" height="389" viewBox="0 0 539 389" fill="none" xmlns="http://www.w3.org/2000/svg">
<g opacity="0.5">
<path d="M2 44.5197L22.7525 43.9395C23.7526 48.4158 28.0865 50.6539 35.7541 50.6539C38.9767 50.6539 41.477 50.1289 43.255 49.0789C45.0885 48.0289 46.0053 46.5921 46.0053 44.7684C46.0053 42.2816 43.9773 40.6237 39.9212 39.7947L25.5028 36.9763C18.3353 35.5395 13.1124 33.55 9.83428 31.0079C6.5561 28.4105 4.91702 24.6803 4.91702 19.8171C4.91702 16.2803 5.9727 13.1303 8.08407 10.3671C12.5846 4.12237 21.419 1 34.5873 1C42.5882 1 48.7556 1.77369 53.0895 3.32106C57.8123 4.92369 61.2849 7.68685 63.5074 11.6105C64.5631 13.5447 65.2298 15.7 65.5076 18.0763L44.9218 19.2368C44.5329 17.6342 43.6717 16.4184 42.3382 15.5895C41.0047 14.7053 39.7545 14.2079 38.5877 14.0974C37.4765 13.9316 36.1152 13.8487 34.5039 13.8487C28.3365 13.8487 25.2528 15.3961 25.2528 18.4908C25.2528 20.0934 26.0862 21.2816 27.7531 22.0553C29.4755 22.829 32.6981 23.6855 37.4209 24.625L44.8385 26.1171C46.7276 26.5039 48.0055 26.7803 48.6723 26.9461C49.339 27.0566 50.617 27.3882 52.5061 27.9408C54.4508 28.4382 55.8676 28.9079 56.7566 29.35C57.7011 29.7921 58.8957 30.4829 60.3404 31.4224C61.8405 32.3066 62.9518 33.2737 63.6741 34.3237C64.3964 35.3184 65.0354 36.5895 65.591 38.1368C66.2022 39.629 66.5078 41.2592 66.5078 43.0276C66.5078 47.1171 65.2576 50.7921 62.7573 54.0526C57.7011 60.5184 47.6999 63.7513 32.7537 63.7513C13.6403 63.7513 3.38906 57.3408 2 44.5197ZM138.434 62.0105H75.5928V3.48684H137.684V16.5842H96.6787V26.2H134.6V39.3803H96.6787V48.7474H138.434V62.0105ZM216.193 62.0105H192.94L180.772 40.7066H169.604V62.0105H148.435V3.48684H191.773C196.663 3.48684 200.719 3.98421 203.942 4.97895C207.164 5.97369 209.859 8.15658 212.026 11.5276C214.026 14.7329 215.026 18.2421 215.026 22.0553C215.026 23.05 214.971 24.0171 214.86 24.9566C214.748 25.8961 214.415 27.1395 213.859 28.6868C213.359 30.1789 212.637 31.5329 211.693 32.7487C210.804 33.9645 209.47 35.125 207.692 36.2303C205.97 37.3355 203.914 38.1368 201.525 38.6342L216.193 62.0105ZM169.604 16.75V27.5263H185.439C189.218 27.5263 191.69 26.8355 192.857 25.454C193.635 24.5145 194.024 23.4092 194.024 22.1382C194.024 20.9776 193.718 19.9829 193.107 19.1539C191.996 17.5513 189.995 16.75 187.106 16.75H169.604ZM290.326 3.48684L263.489 62.0105H243.903L217.234 3.48684H239.32L253.655 38.8L268.24 3.48684H290.326ZM315.538 62.0105H294.452V3.48684H315.538V62.0105ZM398.445 19.4855L378.943 22.8842C376.054 17.1921 371.137 14.3461 364.191 14.3461C358.468 14.3461 353.912 16.1145 350.523 19.6513C347.467 22.8566 345.939 27.1947 345.939 32.6658C345.939 37.4184 347.217 41.3974 349.773 44.6026C352.996 48.6921 357.496 50.7368 363.275 50.7368C367.386 50.7368 370.887 49.7974 373.776 47.9184C376.665 46.0395 378.554 43.7184 379.443 40.9553L399.529 43.0276C398.14 47.5592 395.917 51.3724 392.861 54.4671C386.527 60.8224 376.498 64 362.775 64C354.107 64 346.828 62.6184 340.939 59.8553C339.55 59.1921 338.188 58.4737 336.855 57.7C335.577 56.8711 334.104 55.6829 332.438 54.1355C330.771 52.5329 329.326 50.7921 328.104 48.9132C326.937 47.0342 325.937 44.6855 325.103 41.8671C324.27 39.0487 323.853 36.0092 323.853 32.7487C323.853 31.5329 323.909 30.2895 324.02 29.0184C324.187 27.7474 324.548 26.0066 325.103 23.7961C325.714 21.5855 326.52 19.5408 327.52 17.6618C328.576 15.7276 330.104 13.7105 332.104 11.6105C334.104 9.51053 336.438 7.71448 339.105 6.22237C341.772 4.73026 345.189 3.48684 349.356 2.49211C353.579 1.49737 358.274 1 363.441 1C377.665 1 387.666 4.17763 393.445 10.5329C395.612 12.8539 397.279 15.8382 398.445 19.4855ZM469.284 62.0105H406.443V3.48684H468.534V16.5842H427.529V26.2H465.45V39.3803H427.529V48.7474H469.284V62.0105ZM473.492 44.5197L494.245 43.9395C495.245 48.4158 499.579 50.6539 507.246 50.6539C510.469 50.6539 512.969 50.1289 514.747 49.0789C516.581 48.0289 517.498 46.5921 517.498 44.7684C517.498 42.2816 515.47 40.6237 511.413 39.7947L496.995 36.9763C489.828 35.5395 484.605 33.55 481.327 31.0079C478.048 28.4105 476.409 24.6803 476.409 19.8171C476.409 16.2803 477.465 13.1303 479.576 10.3671C484.077 4.12237 492.911 1 506.079 1C514.08 1 520.248 1.77369 524.582 3.32106C529.305 4.92369 532.777 7.68685 535 11.6105C536.055 13.5447 536.722 15.7 537 18.0763L516.414 19.2368C516.025 17.6342 515.164 16.4184 513.83 15.5895C512.497 14.7053 511.247 14.2079 510.08 14.0974C508.969 13.9316 507.607 13.8487 505.996 13.8487C499.829 13.8487 496.745 15.3961 496.745 18.4908C496.745 20.0934 497.578 21.2816 499.245 22.0553C500.968 22.829 504.19 23.6855 508.913 24.625L516.331 26.1171C518.22 26.5039 519.498 26.7803 520.165 26.9461C520.831 27.0566 522.109 27.3882 523.998 27.9408C525.943 28.4382 527.36 28.9079 528.249 29.35C529.193 29.7921 530.388 30.4829 531.833 31.4224C533.333 32.3066 534.444 33.2737 535.166 34.3237C535.889 35.3184 536.528 36.5895 537.083 38.1368C537.694 39.629 538 41.2592 538 43.0276C538 47.1171 536.75 50.7921 534.25 54.0526C529.193 60.5184 519.192 63.7513 504.246 63.7513C485.133 63.7513 474.881 57.3408 473.492 44.5197Z" stroke="#242426" stroke-width="2"/>
<path d="M2 152.52L22.7525 151.939C23.7526 156.416 28.0865 158.654 35.7541 158.654C38.9767 158.654 41.477 158.129 43.255 157.079C45.0885 156.029 46.0053 154.592 46.0053 152.768C46.0053 150.282 43.9773 148.624 39.9212 147.795L25.5028 144.976C18.3353 143.539 13.1124 141.55 9.83428 139.008C6.5561 136.411 4.91702 132.68 4.91702 127.817C4.91702 124.28 5.9727 121.13 8.08407 118.367C12.5846 112.122 21.419 109 34.5873 109C42.5882 109 48.7556 109.774 53.0895 111.321C57.8123 112.924 61.2849 115.687 63.5074 119.611C64.5631 121.545 65.2298 123.7 65.5076 126.076L44.9218 127.237C44.5329 125.634 43.6717 124.418 42.3382 123.589C41.0047 122.705 39.7545 122.208 38.5877 122.097C37.4765 121.932 36.1152 121.849 34.5039 121.849C28.3365 121.849 25.2528 123.396 25.2528 126.491C25.2528 128.093 26.0862 129.282 27.7531 130.055C29.4755 130.829 32.6981 131.686 37.4209 132.625L44.8385 134.117C46.7276 134.504 48.0055 134.78 48.6723 134.946C49.339 135.057 50.617 135.388 52.5061 135.941C54.4508 136.438 55.8676 136.908 56.7566 137.35C57.7011 137.792 58.8957 138.483 60.3404 139.422C61.8405 140.307 62.9518 141.274 63.6741 142.324C64.3964 143.318 65.0354 144.589 65.591 146.137C66.2022 147.629 66.5078 149.259 66.5078 151.028C66.5078 155.117 65.2576 158.792 62.7573 162.053C57.7011 168.518 47.6999 171.751 32.7537 171.751C13.6403 171.751 3.38906 165.341 2 152.52ZM138.434 170.011H75.5928V111.487H137.684V124.584H96.6787V134.2H134.6V147.38H96.6787V156.747H138.434V170.011ZM216.193 170.011H192.94L180.772 148.707H169.604V170.011H148.435V111.487H191.773C196.663 111.487 200.719 111.984 203.942 112.979C207.164 113.974 209.859 116.157 212.026 119.528C214.026 122.733 215.026 126.242 215.026 130.055C215.026 131.05 214.971 132.017 214.86 132.957C214.748 133.896 214.415 135.139 213.859 136.687C213.359 138.179 212.637 139.533 211.693 140.749C210.804 141.964 209.47 143.125 207.692 144.23C205.97 145.336 203.914 146.137 201.525 146.634L216.193 170.011ZM169.604 124.75V135.526H185.439C189.218 135.526 191.69 134.836 192.857 133.454C193.635 132.514 194.024 131.409 194.024 130.138C194.024 128.978 193.718 127.983 193.107 127.154C191.996 125.551 189.995 124.75 187.106 124.75H169.604ZM290.326 111.487L263.489 170.011H243.903L217.234 111.487H239.32L253.655 146.8L268.24 111.487H290.326ZM315.538 170.011H294.452V111.487H315.538V170.011ZM398.445 127.486L378.943 130.884C376.054 125.192 371.137 122.346 364.191 122.346C358.468 122.346 353.912 124.114 350.523 127.651C347.467 130.857 345.939 135.195 345.939 140.666C345.939 145.418 347.217 149.397 349.773 152.603C352.996 156.692 357.496 158.737 363.275 158.737C367.386 158.737 370.887 157.797 373.776 155.918C376.665 154.039 378.554 151.718 379.443 148.955L399.529 151.028C398.14 155.559 395.917 159.372 392.861 162.467C386.527 168.822 376.498 172 362.775 172C354.107 172 346.828 170.618 340.939 167.855C339.55 167.192 338.188 166.474 336.855 165.7C335.577 164.871 334.104 163.683 332.438 162.136C330.771 160.533 329.326 158.792 328.104 156.913C326.937 155.034 325.937 152.686 325.103 149.867C324.27 147.049 323.853 144.009 323.853 140.749C323.853 139.533 323.909 138.289 324.02 137.018C324.187 135.747 324.548 134.007 325.103 131.796C325.714 129.586 326.52 127.541 327.52 125.662C328.576 123.728 330.104 121.711 332.104 119.611C334.104 117.511 336.438 115.714 339.105 114.222C341.772 112.73 345.189 111.487 349.356 110.492C353.579 109.497 358.274 109 363.441 109C377.665 109 387.666 112.178 393.445 118.533C395.612 120.854 397.279 123.838 398.445 127.486ZM469.284 170.011H406.443V111.487H468.534V124.584H427.529V134.2H465.45V147.38H427.529V156.747H469.284V170.011ZM473.492 152.52L494.245 151.939C495.245 156.416 499.579 158.654 507.246 158.654C510.469 158.654 512.969 158.129 514.747 157.079C516.581 156.029 517.498 154.592 517.498 152.768C517.498 150.282 515.47 148.624 511.413 147.795L496.995 144.976C489.828 143.539 484.605 141.55 481.327 139.008C478.048 136.411 476.409 132.68 476.409 127.817C476.409 124.28 477.465 121.13 479.576 118.367C484.077 112.122 492.911 109 506.079 109C514.08 109 520.248 109.774 524.582 111.321C529.305 112.924 532.777 115.687 535 119.611C536.055 121.545 536.722 123.7 537 126.076L516.414 127.237C516.025 125.634 515.164 124.418 513.83 123.589C512.497 122.705 511.247 122.208 510.08 122.097C508.969 121.932 507.607 121.849 505.996 121.849C499.829 121.849 496.745 123.396 496.745 126.491C496.745 128.093 497.578 129.282 499.245 130.055C500.968 130.829 504.19 131.686 508.913 132.625L516.331 134.117C518.22 134.504 519.498 134.78 520.165 134.946C520.831 135.057 522.109 135.388 523.998 135.941C525.943 136.438 527.36 136.908 528.249 137.35C529.193 137.792 530.388 138.483 531.833 139.422C533.333 140.307 534.444 141.274 535.166 142.324C535.889 143.318 536.528 144.589 537.083 146.137C537.694 147.629 538 149.259 538 151.028C538 155.117 536.75 158.792 534.25 162.053C529.193 168.518 519.192 171.751 504.246 171.751C485.133 171.751 474.881 165.341 473.492 152.52Z" stroke="#242426" stroke-width="2"/>
<path d="M2 260.52L22.7525 259.939C23.7526 264.416 28.0865 266.654 35.7541 266.654C38.9767 266.654 41.477 266.129 43.255 265.079C45.0885 264.029 46.0053 262.592 46.0053 260.768C46.0053 258.282 43.9773 256.624 39.9212 255.795L25.5028 252.976C18.3353 251.539 13.1124 249.55 9.83428 247.008C6.5561 244.411 4.91702 240.68 4.91702 235.817C4.91702 232.28 5.9727 229.13 8.08407 226.367C12.5846 220.122 21.419 217 34.5873 217C42.5882 217 48.7556 217.774 53.0895 219.321C57.8123 220.924 61.2849 223.687 63.5074 227.611C64.5631 229.545 65.2298 231.7 65.5076 234.076L44.9218 235.237C44.5329 233.634 43.6717 232.418 42.3382 231.589C41.0047 230.705 39.7545 230.208 38.5877 230.097C37.4765 229.932 36.1152 229.849 34.5039 229.849C28.3365 229.849 25.2528 231.396 25.2528 234.491C25.2528 236.093 26.0862 237.282 27.7531 238.055C29.4755 238.829 32.6981 239.686 37.4209 240.625L44.8385 242.117C46.7276 242.504 48.0055 242.78 48.6723 242.946C49.339 243.057 50.617 243.388 52.5061 243.941C54.4508 244.438 55.8676 244.908 56.7566 245.35C57.7011 245.792 58.8957 246.483 60.3404 247.422C61.8405 248.307 62.9518 249.274 63.6741 250.324C64.3964 251.318 65.0354 252.589 65.591 254.137C66.2022 255.629 66.5078 257.259 66.5078 259.028C66.5078 263.117 65.2576 266.792 62.7573 270.053C57.7011 276.518 47.6999 279.751 32.7537 279.751C13.6403 279.751 3.38906 273.341 2 260.52ZM138.434 278.011H75.5928V219.487H137.684V232.584H96.6787V242.2H134.6V255.38H96.6787V264.747H138.434V278.011ZM216.193 278.011H192.94L180.772 256.707H169.604V278.011H148.435V219.487H191.773C196.663 219.487 200.719 219.984 203.942 220.979C207.164 221.974 209.859 224.157 212.026 227.528C214.026 230.733 215.026 234.242 215.026 238.055C215.026 239.05 214.971 240.017 214.86 240.957C214.748 241.896 214.415 243.139 213.859 244.687C213.359 246.179 212.637 247.533 211.693 248.749C210.804 249.964 209.47 251.125 207.692 252.23C205.97 253.336 203.914 254.137 201.525 254.634L216.193 278.011ZM169.604 232.75V243.526H185.439C189.218 243.526 191.69 242.836 192.857 241.454C193.635 240.514 194.024 239.409 194.024 238.138C194.024 236.978 193.718 235.983 193.107 235.154C191.996 233.551 189.995 232.75 187.106 232.75H169.604ZM290.326 219.487L263.489 278.011H243.903L217.234 219.487H239.32L253.655 254.8L268.24 219.487H290.326ZM315.538 278.011H294.452V219.487H315.538V278.011ZM398.445 235.486L378.943 238.884C376.054 233.192 371.137 230.346 364.191 230.346C358.468 230.346 353.912 232.114 350.523 235.651C347.467 238.857 345.939 243.195 345.939 248.666C345.939 253.418 347.217 257.397 349.773 260.603C352.996 264.692 357.496 266.737 363.275 266.737C367.386 266.737 370.887 265.797 373.776 263.918C376.665 262.039 378.554 259.718 379.443 256.955L399.529 259.028C398.14 263.559 395.917 267.372 392.861 270.467C386.527 276.822 376.498 280 362.775 280C354.107 280 346.828 278.618 340.939 275.855C339.55 275.192 338.188 274.474 336.855 273.7C335.577 272.871 334.104 271.683 332.438 270.136C330.771 268.533 329.326 266.792 328.104 264.913C326.937 263.034 325.937 260.686 325.103 257.867C324.27 255.049 323.853 252.009 323.853 248.749C323.853 247.533 323.909 246.289 324.02 245.018C324.187 243.747 324.548 242.007 325.103 239.796C325.714 237.586 326.52 235.541 327.52 233.662C328.576 231.728 330.104 229.711 332.104 227.611C334.104 225.511 336.438 223.714 339.105 222.222C341.772 220.73 345.189 219.487 349.356 218.492C353.579 217.497 358.274 217 363.441 217C377.665 217 387.666 220.178 393.445 226.533C395.612 228.854 397.279 231.838 398.445 235.486ZM469.284 278.011H406.443V219.487H468.534V232.584H427.529V242.2H465.45V255.38H427.529V264.747H469.284V278.011ZM473.492 260.52L494.245 259.939C495.245 264.416 499.579 266.654 507.246 266.654C510.469 266.654 512.969 266.129 514.747 265.079C516.581 264.029 517.498 262.592 517.498 260.768C517.498 258.282 515.47 256.624 511.413 255.795L496.995 252.976C489.828 251.539 484.605 249.55 481.327 247.008C478.048 244.411 476.409 240.68 476.409 235.817C476.409 232.28 477.465 229.13 479.576 226.367C484.077 220.122 492.911 217 506.079 217C514.08 217 520.248 217.774 524.582 219.321C529.305 220.924 532.777 223.687 535 227.611C536.055 229.545 536.722 231.7 537 234.076L516.414 235.237C516.025 233.634 515.164 232.418 513.83 231.589C512.497 230.705 511.247 230.208 510.08 230.097C508.969 229.932 507.607 229.849 505.996 229.849C499.829 229.849 496.745 231.396 496.745 234.491C496.745 236.093 497.578 237.282 499.245 238.055C500.968 238.829 504.19 239.686 508.913 240.625L516.331 242.117C518.22 242.504 519.498 242.78 520.165 242.946C520.831 243.057 522.109 243.388 523.998 243.941C525.943 244.438 527.36 244.908 528.249 245.35C529.193 245.792 530.388 246.483 531.833 247.422C533.333 248.307 534.444 249.274 535.166 250.324C535.889 251.318 536.528 252.589 537.083 254.137C537.694 255.629 538 257.259 538 259.028C538 263.117 536.75 266.792 534.25 270.053C529.193 276.518 519.192 279.751 504.246 279.751C485.133 279.751 474.881 273.341 473.492 260.52Z" stroke="#242426" stroke-width="2"/>
<path d="M2 368.52L22.7525 367.939C23.7526 372.416 28.0865 374.654 35.7541 374.654C38.9767 374.654 41.477 374.129 43.255 373.079C45.0885 372.029 46.0053 370.592 46.0053 368.768C46.0053 366.282 43.9773 364.624 39.9212 363.795L25.5028 360.976C18.3353 359.539 13.1124 357.55 9.83428 355.008C6.5561 352.411 4.91702 348.68 4.91702 343.817C4.91702 340.28 5.9727 337.13 8.08407 334.367C12.5846 328.122 21.419 325 34.5873 325C42.5882 325 48.7556 325.774 53.0895 327.321C57.8123 328.924 61.2849 331.687 63.5074 335.611C64.5631 337.545 65.2298 339.7 65.5076 342.076L44.9218 343.237C44.5329 341.634 43.6717 340.418 42.3382 339.589C41.0047 338.705 39.7545 338.208 38.5877 338.097C37.4765 337.932 36.1152 337.849 34.5039 337.849C28.3365 337.849 25.2528 339.396 25.2528 342.491C25.2528 344.093 26.0862 345.282 27.7531 346.055C29.4755 346.829 32.6981 347.686 37.4209 348.625L44.8385 350.117C46.7276 350.504 48.0055 350.78 48.6723 350.946C49.339 351.057 50.617 351.388 52.5061 351.941C54.4508 352.438 55.8676 352.908 56.7566 353.35C57.7011 353.792 58.8957 354.483 60.3404 355.422C61.8405 356.307 62.9518 357.274 63.6741 358.324C64.3964 359.318 65.0354 360.589 65.591 362.137C66.2022 363.629 66.5078 365.259 66.5078 367.028C66.5078 371.117 65.2576 374.792 62.7573 378.053C57.7011 384.518 47.6999 387.751 32.7537 387.751C13.6403 387.751 3.38906 381.341 2 368.52ZM138.434 386.011H75.5928V327.487H137.684V340.584H96.6787V350.2H134.6V363.38H96.6787V372.747H138.434V386.011ZM216.193 386.011H192.94L180.772 364.707H169.604V386.011H148.435V327.487H191.773C196.663 327.487 200.719 327.984 203.942 328.979C207.164 329.974 209.859 332.157 212.026 335.528C214.026 338.733 215.026 342.242 215.026 346.055C215.026 347.05 214.971 348.017 214.86 348.957C214.748 349.896 214.415 351.139 213.859 352.687C213.359 354.179 212.637 355.533 211.693 356.749C210.804 357.964 209.47 359.125 207.692 360.23C205.97 361.336 203.914 362.137 201.525 362.634L216.193 386.011ZM169.604 340.75V351.526H185.439C189.218 351.526 191.69 350.836 192.857 349.454C193.635 348.514 194.024 347.409 194.024 346.138C194.024 344.978 193.718 343.983 193.107 343.154C191.996 341.551 189.995 340.75 187.106 340.75H169.604ZM290.326 327.487L263.489 386.011H243.903L217.234 327.487H239.32L253.655 362.8L268.24 327.487H290.326ZM315.538 386.011H294.452V327.487H315.538V386.011ZM398.445 343.486L378.943 346.884C376.054 341.192 371.137 338.346 364.191 338.346C358.468 338.346 353.912 340.114 350.523 343.651C347.467 346.857 345.939 351.195 345.939 356.666C345.939 361.418 347.217 365.397 349.773 368.603C352.996 372.692 357.496 374.737 363.275 374.737C367.386 374.737 370.887 373.797 373.776 371.918C376.665 370.039 378.554 367.718 379.443 364.955L399.529 367.028C398.14 371.559 395.917 375.372 392.861 378.467C386.527 384.822 376.498 388 362.775 388C354.107 388 346.828 386.618 340.939 383.855C339.55 383.192 338.188 382.474 336.855 381.7C335.577 380.871 334.104 379.683 332.438 378.136C330.771 376.533 329.326 374.792 328.104 372.913C326.937 371.034 325.937 368.686 325.103 365.867C324.27 363.049 323.853 360.009 323.853 356.749C323.853 355.533 323.909 354.289 324.02 353.018C324.187 351.747 324.548 350.007 325.103 347.796C325.714 345.586 326.52 343.541 327.52 341.662C328.576 339.728 330.104 337.711 332.104 335.611C334.104 333.511 336.438 331.714 339.105 330.222C341.772 328.73 345.189 327.487 349.356 326.492C353.579 325.497 358.274 325 363.441 325C377.665 325 387.666 328.178 393.445 334.533C395.612 336.854 397.279 339.838 398.445 343.486ZM469.284 386.011H406.443V327.487H468.534V340.584H427.529V350.2H465.45V363.38H427.529V372.747H469.284V386.011ZM473.492 368.52L494.245 367.939C495.245 372.416 499.579 374.654 507.246 374.654C510.469 374.654 512.969 374.129 514.747 373.079C516.581 372.029 517.498 370.592 517.498 368.768C517.498 366.282 515.47 364.624 511.413 363.795L496.995 360.976C489.828 359.539 484.605 357.55 481.327 355.008C478.048 352.411 476.409 348.68 476.409 343.817C476.409 340.28 477.465 337.13 479.576 334.367C484.077 328.122 492.911 325 506.079 325C514.08 325 520.248 325.774 524.582 327.321C529.305 328.924 532.777 331.687 535 335.611C536.055 337.545 536.722 339.7 537 342.076L516.414 343.237C516.025 341.634 515.164 340.418 513.83 339.589C512.497 338.705 511.247 338.208 510.08 338.097C508.969 337.932 507.607 337.849 505.996 337.849C499.829 337.849 496.745 339.396 496.745 342.491C496.745 344.093 497.578 345.282 499.245 346.055C500.968 346.829 504.19 347.686 508.913 348.625L516.331 350.117C518.22 350.504 519.498 350.78 520.165 350.946C520.831 351.057 522.109 351.388 523.998 351.941C525.943 352.438 527.36 352.908 528.249 353.35C529.193 353.792 530.388 354.483 531.833 355.422C533.333 356.307 534.444 357.274 535.166 358.324C535.889 359.318 536.528 360.589 537.083 362.137C537.694 363.629 538 365.259 538 367.028C538 371.117 536.75 374.792 534.25 378.053C529.193 384.518 519.192 387.751 504.246 387.751C485.133 387.751 474.881 381.341 473.492 368.52Z" stroke="#242426" stroke-width="2"/>
</g>
</svg>
