<svg width="871" height="101" viewBox="0 0 871 101" fill="none" xmlns="http://www.w3.org/2000/svg">
<path d="M1.28 68.992L1.2519 67.9924L0.169773 68.0228L0.285756 69.0991L1.28 68.992ZM33.152 68.096L34.1282 67.8791L33.9491 67.0732L33.1239 67.0964L33.152 68.096ZM64.64 76.032L64.141 75.1653L64.1295 75.1721L64.64 76.032ZM59.52 61.696L59.7213 60.7164L59.7128 60.7148L59.52 61.696ZM37.376 57.344L37.1784 58.3243L37.1832 58.3252L37.376 57.344ZM13.312 48.128L12.6889 48.9102L12.6971 48.9166L13.312 48.128ZM10.624 16.256L11.4202 16.8611L11.4286 16.85L11.4368 16.8386L10.624 16.256ZM79.744 5.376L79.4061 6.31719L79.4136 6.31987L79.4211 6.32243L79.744 5.376ZM95.744 18.176L96.6229 17.6989L96.6191 17.692L96.6152 17.6852L95.744 18.176ZM98.816 28.16L98.8726 29.1584L99.9319 29.0984L99.8093 28.0445L98.816 28.16ZM67.2 29.952L66.2279 30.1866L66.4237 30.9976L67.2566 30.9504L67.2 29.952ZM63.232 24.32L62.6773 25.1521L62.6895 25.1602L62.702 25.168L63.232 24.32ZM57.472 22.016L57.3237 23.0049L57.3503 23.0089L57.3772 23.0115L57.472 22.016ZM40.832 34.304L40.4091 35.2103L40.4204 35.2154L40.832 34.304ZM55.68 38.272L55.8782 37.2918L55.8761 37.2914L55.68 38.272ZM67.072 40.576L67.2737 39.5965L67.2702 39.5958L67.072 40.576ZM72.96 41.856L72.7175 42.8261L72.7562 42.8358L72.7956 42.8424L72.96 41.856ZM78.848 43.392L78.5658 44.3514L78.5823 44.3562L78.599 44.3605L78.848 43.392ZM85.376 45.568L84.9288 46.4624L84.9394 46.4677L84.9502 46.4728L85.376 45.568ZM90.88 48.768L90.3328 49.605L90.3512 49.617L90.3702 49.6283L90.88 48.768ZM96 53.248L95.1747 53.8127L95.1819 53.8232L95.1893 53.8335L96 53.248ZM98.944 59.136L98.0023 59.4723L98.0096 59.493L98.0179 59.5133L98.944 59.136ZM94.592 83.712L95.3814 84.326L95.3871 84.3185L94.592 83.712ZM1.3081 69.9916L33.1801 69.0956L33.1239 67.0964L1.2519 67.9924L1.3081 69.9916ZM32.1758 68.3129C33.0122 72.0767 35.2624 74.9044 38.8352 76.7595C42.3641 78.5918 47.1541 79.464 53.12 79.464V77.464C47.31 77.464 42.8839 76.6082 39.7568 74.9845C36.6736 73.3836 34.8278 71.0273 34.1282 67.8791L32.1758 68.3129ZM53.12 79.464C58.1573 79.464 62.202 78.6425 65.1505 76.8919L64.1295 75.1721C61.6167 76.6641 57.9814 77.464 53.12 77.464V79.464ZM65.139 76.8986C68.2079 75.1317 69.864 72.611 69.864 69.376H67.864C67.864 71.773 66.7041 73.6897 64.141 75.1654L65.139 76.8986ZM69.864 69.376C69.864 67.1401 68.9381 65.2625 67.163 63.8035C65.4279 62.3773 62.9124 61.3722 59.7213 60.7165L59.3187 62.6755C62.357 63.2998 64.5135 64.2146 65.893 65.3485C67.2325 66.4495 67.864 67.7719 67.864 69.376H69.864ZM59.7128 60.7148L37.5688 56.3628L37.1832 58.3252L59.3272 62.6772L59.7128 60.7148ZM37.5736 56.3637C26.6187 54.1558 18.7788 51.1223 13.9269 47.3394L12.6971 48.9166C17.9145 52.9844 26.1173 56.0949 37.1784 58.3243L37.5736 56.3637ZM13.9351 47.3458C9.17981 43.5577 6.76 38.1097 6.76 30.848H4.76C4.76 38.6049 7.37486 44.6769 12.6889 48.9102L13.9351 47.3458ZM6.76 30.848C6.76 25.6007 8.31244 20.9502 11.4202 16.8611L9.82784 15.6509C6.45023 20.0951 4.76 25.1726 4.76 30.848H6.76ZM11.4368 16.8386C18.0602 7.59853 31.2018 2.79199 51.328 2.79199V0.791992C31.0062 0.791992 17.0118 5.62812 9.81124 15.6734L11.4368 16.8386ZM51.328 2.79199C63.5728 2.79199 72.9102 3.9853 79.4061 6.31719L80.0819 4.4348C73.2658 1.98802 63.6592 0.791992 51.328 0.791992V2.79199ZM79.4211 6.32243C86.4675 8.7265 91.5927 12.8447 94.8728 18.6668L96.6152 17.6852C93.0686 11.3899 87.5272 6.97483 80.0669 4.42957L79.4211 6.32243ZM94.8652 18.6531C96.4205 21.5182 97.4095 24.7218 97.8227 28.2755L99.8093 28.0445C99.3692 24.2595 98.3102 20.8071 96.6229 17.6989L94.8652 18.6531ZM98.7594 27.1616L67.1434 28.9536L67.2566 30.9504L98.8726 29.1584L98.7594 27.1616ZM68.1721 29.7174C67.517 27.0035 66.0449 24.8988 63.762 23.472L62.702 25.168C64.5151 26.3012 65.6883 27.9511 66.2279 30.1866L68.1721 29.7174ZM63.7867 23.4879C61.6494 22.063 59.5725 21.2115 57.5668 21.0205L57.3772 23.0115C58.9555 23.1618 60.7186 23.8463 62.6773 25.1521L63.7867 23.4879ZM57.6203 21.0271C55.8486 20.7613 53.705 20.632 51.2 20.632V22.632C53.6444 22.632 55.6821 22.7587 57.3237 23.0049L57.6203 21.0271ZM51.2 20.632C46.4122 20.632 42.6717 21.2305 40.0936 22.5312C38.7902 23.1887 37.7538 24.0409 37.0457 25.1127C36.3337 26.1904 35.992 27.4322 35.992 28.8H37.992C37.992 27.7785 38.2423 26.9296 38.7143 26.2153C39.1902 25.4951 39.9298 24.8539 40.9944 24.3168C43.1523 23.2281 46.5158 22.632 51.2 22.632V20.632ZM35.992 28.8C35.992 30.2193 36.3624 31.5013 37.1319 32.6042C37.8958 33.6991 39.0109 34.5577 40.4091 35.2102L41.2549 33.3978C40.0931 32.8556 39.2882 32.1995 38.7721 31.4598C38.2616 30.728 37.992 29.8554 37.992 28.8H35.992ZM40.4204 35.2154C43.1822 36.4626 48.2359 37.803 55.4839 39.2526L55.8761 37.2914C48.6174 35.8397 43.7725 34.5347 41.2436 33.3926L40.4204 35.2154ZM55.4818 39.2522L66.8738 41.5562L67.2702 39.5958L55.8782 37.2918L55.4818 39.2522ZM66.8704 41.5555C69.7741 42.1533 71.7169 42.576 72.7175 42.8261L73.2025 40.8859C72.1552 40.624 70.1726 40.1934 67.2737 39.5965L66.8704 41.5555ZM72.7956 42.8424C73.7504 43.0015 75.656 43.4955 78.5658 44.3514L79.1302 42.4326C76.2373 41.5818 74.2176 41.0518 73.1244 40.8696L72.7956 42.8424ZM78.599 44.3605C81.5716 45.1249 83.6625 45.8293 84.9288 46.4624L85.8232 44.6736C84.3588 43.9414 82.0977 43.1951 79.097 42.4235L78.599 44.3605ZM84.9502 46.4728C86.3407 47.1271 88.1314 48.1656 90.3328 49.605L91.4273 47.931C89.1913 46.4691 87.3127 45.3742 85.8018 44.6632L84.9502 46.4728ZM90.3702 49.6283C92.5918 50.9448 94.1719 52.3471 95.1747 53.8127L96.8253 52.6833C95.6094 50.9062 93.7762 49.3219 91.3898 47.9077L90.3702 49.6283ZM95.1893 53.8335C96.2284 55.2722 97.1706 57.1438 98.0023 59.4723L99.8857 58.7997C99.0107 56.3495 97.9903 54.2958 96.8107 52.6625L95.1893 53.8335ZM98.0179 59.5133C98.9032 61.6863 99.352 64.074 99.352 66.688H101.352C101.352 63.8406 100.862 61.1937 99.8701 58.7587L98.0179 59.5133ZM99.352 66.688C99.352 72.7829 97.5044 78.2446 93.7969 83.1056L95.3871 84.3185C99.3596 79.1101 101.352 73.2225 101.352 66.688H99.352ZM93.8027 83.0981C86.3361 92.6979 71.3961 97.688 48.512 97.688V99.688C71.5372 99.688 87.3172 94.6941 95.3814 84.3259L93.8027 83.0981ZM48.512 97.688C33.9234 97.688 22.8655 95.2242 15.2203 90.4174C7.62765 85.6437 3.3108 78.5041 2.27424 68.8849L0.285756 69.0991C1.38253 79.2772 6.00436 86.9856 14.1557 92.1106C22.2545 97.2025 33.7459 99.688 48.512 99.688V97.688ZM217.217 96V97H218.217V96H217.217ZM120.705 96H119.705V97H120.705V96ZM120.705 5.632V4.632H119.705V5.632H120.705ZM216.065 5.632H217.065V4.632H216.065V5.632ZM216.065 25.856V26.856H217.065V25.856H216.065ZM153.089 25.856V24.856H152.089V25.856H153.089ZM153.089 40.704H152.089V41.704H153.089V40.704ZM211.329 40.704H212.329V39.704H211.329V40.704ZM211.329 61.056V62.056H212.329V61.056H211.329ZM153.089 61.056V60.056H152.089V61.056H153.089ZM153.089 75.52H152.089V76.52H153.089V75.52ZM217.217 75.52H218.217V74.52H217.217V75.52ZM217.217 95H120.705V97H217.217V95ZM121.705 96V5.632H119.705V96H121.705ZM120.705 6.632H216.065V4.632H120.705V6.632ZM215.065 5.632V25.856H217.065V5.632H215.065ZM216.065 24.856H153.089V26.856H216.065V24.856ZM152.089 25.856V40.704H154.089V25.856H152.089ZM153.089 41.704H211.329V39.704H153.089V41.704ZM210.329 40.704V61.056H212.329V40.704H210.329ZM211.329 60.056H153.089V62.056H211.329V60.056ZM152.089 61.056V75.52H154.089V61.056H152.089ZM153.089 76.52H217.217V74.52H153.089V76.52ZM216.217 75.52V96H218.217V75.52H216.217ZM343.041 96V97H344.844L343.889 95.4705L343.041 96ZM307.329 96L306.46 96.4939L306.747 97H307.329V96ZM288.641 63.104L289.51 62.61L289.223 62.104H288.641V63.104ZM271.489 63.104V62.104H270.489V63.104H271.489ZM271.489 96V97H272.489V96H271.489ZM238.977 96H237.977V97H238.977V96ZM238.977 5.632V4.632H237.977V5.632H238.977ZM324.225 7.936L323.929 8.89106L324.225 7.936ZM336.641 18.048L337.491 17.5206L337.484 17.5093L336.641 18.048ZM340.993 38.784L341.986 38.9008V38.9008L340.993 38.784ZM339.457 44.544L338.515 44.2077L338.512 44.2177L338.508 44.2278L339.457 44.544ZM336.129 50.816L335.338 50.2046L335.329 50.2161L335.32 50.2278L336.129 50.816ZM329.985 56.192L329.455 55.344L329.449 55.3478L329.443 55.3517L329.985 56.192ZM320.513 59.904L320.308 58.9252L318.906 59.2186L319.665 60.4335L320.513 59.904ZM271.489 26.112V25.112H270.489V26.112H271.489ZM271.489 42.752H270.489V43.752H271.489V42.752ZM307.201 39.552L307.967 40.1952L307.973 40.1877L307.201 39.552ZM307.585 29.824L306.762 30.3917L306.77 30.4037L306.779 30.4154L307.585 29.824ZM343.041 95H307.329V97H343.041V95ZM308.198 95.5061L289.51 62.61L287.772 63.598L306.46 96.4939L308.198 95.5061ZM288.641 62.104H271.489V64.104H288.641V62.104ZM270.489 63.104V96H272.489V63.104H270.489ZM271.489 95H238.977V97H271.489V95ZM239.977 96V5.632H237.977V96H239.977ZM238.977 6.632H305.537V4.632H238.977V6.632ZM305.537 6.632C312.987 6.632 319.108 7.39494 323.929 8.89106L324.521 6.98093C319.444 5.40506 313.106 4.632 305.537 4.632V6.632ZM323.929 8.89106C328.611 10.3442 332.572 13.5402 335.798 18.5867L337.484 17.5093C334.054 12.1451 329.738 8.5998 324.521 6.98093L323.929 8.89106ZM335.791 18.5754C338.764 23.3646 340.249 28.6002 340.249 34.304H342.249C342.249 28.2318 340.662 22.6301 337.491 17.5206L335.791 18.5754ZM340.249 34.304C340.249 35.8029 340.166 37.2572 340 38.6672L341.986 38.9008C342.162 37.4095 342.249 35.8771 342.249 34.304H340.249ZM340 38.6672C339.842 40.0077 339.359 41.8455 338.515 44.2077L340.399 44.8803C341.262 42.4638 341.803 40.4616 341.986 38.9008L340 38.6672ZM338.508 44.2278C337.775 46.4278 336.718 48.4182 335.338 50.2046L336.92 51.4274C338.441 49.4591 339.603 47.2682 340.406 44.8602L338.508 44.2278ZM335.32 50.2278C334.053 51.9697 332.116 53.6808 329.455 55.344L330.515 57.04C333.315 55.2899 335.474 53.4169 336.938 51.4042L335.32 50.2278ZM329.443 55.3517C326.918 56.9806 323.88 58.1776 320.308 58.9252L320.718 60.8828C324.485 60.0944 327.761 58.8168 330.527 57.0323L329.443 55.3517ZM319.665 60.4335L342.193 96.5295L343.889 95.4705L321.361 59.3745L319.665 60.4335ZM270.489 26.112V42.752H272.489V26.112H270.489ZM271.489 43.752H295.809V41.752H271.489V43.752ZM295.809 43.752C298.763 43.752 301.262 43.4814 303.279 42.9147C305.294 42.3488 306.898 41.4675 307.967 40.1952L306.435 38.9088C305.712 39.7699 304.521 40.4885 302.739 40.9893C300.959 41.4892 298.658 41.752 295.809 41.752V43.752ZM307.973 40.1877C309.322 38.5496 309.993 36.6155 309.993 34.432H307.993C307.993 36.1739 307.469 37.6531 306.429 38.9163L307.973 40.1877ZM309.993 34.432C309.993 32.456 309.472 30.7059 308.391 29.2326L306.779 30.4154C307.576 31.5021 307.993 32.824 307.993 34.432H309.993ZM308.408 29.2563C306.437 26.3983 302.969 25.112 298.369 25.112V27.112C302.643 27.112 305.319 28.3003 306.762 30.3917L308.408 29.2563ZM298.369 25.112H271.489V27.112H298.369V25.112ZM463.295 5.632L464.205 6.04696L464.85 4.632H463.295V5.632ZM422.079 96V97H422.722L422.989 96.415L422.079 96ZM391.999 96L391.088 96.4128L391.354 97H391.999V96ZM351.039 5.632V4.632H349.488L350.128 6.04483L351.039 5.632ZM384.959 5.632L385.886 5.2576L385.634 4.632H384.959V5.632ZM406.975 60.16L406.048 60.5344L406.967 62.8112L407.9 60.54L406.975 60.16ZM429.375 5.632V4.632H428.705L428.45 5.25201L429.375 5.632ZM462.385 5.21703L421.169 95.585L422.989 96.415L464.205 6.04696L462.385 5.21703ZM422.079 95H391.999V97H422.079V95ZM392.91 95.5872L351.95 5.21917L350.128 6.04483L391.088 96.4128L392.91 95.5872ZM351.039 6.632H384.959V4.632H351.039V6.632ZM384.032 6.00639L406.048 60.5344L407.902 59.7856L385.886 5.2576L384.032 6.00639ZM407.9 60.54L430.3 6.01198L428.45 5.25201L406.05 59.78L407.9 60.54ZM429.375 6.632H463.295V4.632H429.375V6.632ZM508.417 96V97H509.417V96H508.417ZM476.033 96H475.033V97H476.033V96ZM476.033 5.632V4.632H475.033V5.632H476.033ZM508.417 5.632H509.417V4.632H508.417V5.632ZM508.417 95H476.033V97H508.417V95ZM477.033 96V5.632H475.033V96H477.033ZM476.033 6.632H508.417V4.632H476.033V6.632ZM507.417 5.632V96H509.417V5.632H507.417ZM642.147 30.336L642.32 31.321L643.447 31.1235L643.1 30.0328L642.147 30.336ZM612.195 35.584L611.302 36.0347L611.637 36.697L612.368 36.569L612.195 35.584ZM568.547 30.592L567.823 29.9021L567.821 29.9039L568.547 30.592ZM567.395 69.12L568.182 68.5031L568.179 68.4986L567.395 69.12ZM604.259 74.24L604.806 75.077L604.259 74.24ZM612.963 63.488L613.066 62.4933L612.258 62.4095L612.011 63.1832L612.963 63.488ZM643.811 66.688L644.768 66.9796L645.122 65.8186L643.914 65.6933L643.811 66.688ZM633.571 84.352L634.281 85.056L634.284 85.0527L633.571 84.352ZM553.827 92.672L553.394 93.5735L553.4 93.5764L553.827 92.672ZM547.555 89.344L547.009 90.1816L547.03 90.1952L547.051 90.2078L547.555 89.344ZM540.771 83.84L540.076 84.559L540.082 84.5651L540.089 84.5711L540.771 83.84ZM534.115 75.776L533.264 76.3015L533.27 76.3104L533.275 76.3193L534.115 75.776ZM529.507 64.896L530.466 64.6138L529.507 64.896ZM527.843 45.056L526.851 44.9267L526.849 44.948L526.847 44.9694L527.843 45.056ZM529.507 36.992L528.543 36.7268L528.54 36.7381L528.537 36.7495L529.507 36.992ZM533.219 27.52L532.34 27.0429L532.335 27.0521L533.219 27.52ZM566.755 4.09599L566.525 3.12291L566.522 3.12361L566.755 4.09599ZM634.467 16.512L633.725 17.1828L633.734 17.1924L634.467 16.512ZM641.974 29.351L612.022 34.599L612.368 36.569L642.32 31.321L641.974 29.351ZM613.088 35.1333C610.793 30.5886 607.67 27.1383 603.706 24.8317C599.747 22.5278 595.01 21.4 589.539 21.4V23.4C594.734 23.4 599.107 24.4695 602.7 26.5603C606.288 28.6484 609.159 31.7901 611.302 36.0347L613.088 35.1333ZM589.539 21.4C580.525 21.4 573.249 24.2098 567.823 29.9021L569.271 31.2819C574.256 26.0516 580.974 23.4 589.539 23.4V21.4ZM567.821 29.9039C562.912 35.0809 560.507 42.0482 560.507 50.688H562.507C562.507 42.4318 564.795 36.0018 569.273 31.2801L567.821 29.9039ZM560.507 50.688C560.507 58.2141 562.524 64.5875 566.612 69.7414L568.179 68.4986C564.415 63.7538 562.507 57.8392 562.507 50.688H560.507ZM566.608 69.7369C571.769 76.3213 578.986 79.592 588.131 79.592V77.592C579.526 77.592 572.92 74.548 568.182 68.5031L566.608 69.7369ZM588.131 79.592C594.602 79.592 600.177 78.1036 604.806 75.077L603.712 73.403C599.466 76.1791 594.289 77.592 588.131 77.592V79.592ZM604.806 75.077C609.399 72.0741 612.468 68.3166 613.915 63.7928L612.011 63.1832C610.728 67.1928 607.994 70.6033 603.712 73.403L604.806 75.077ZM612.86 64.4827L643.708 67.6827L643.914 65.6933L613.066 62.4933L612.86 64.4827ZM642.854 66.3964C640.764 73.2543 637.428 78.9978 632.858 83.6513L634.284 85.0527C639.101 80.1489 642.592 74.1164 644.768 66.9796L642.854 66.3964ZM632.861 83.648C623.399 93.1925 608.311 98.072 587.363 98.072V100.072C608.569 100.072 624.287 95.1382 634.281 85.056L632.861 83.648ZM587.363 98.072C574.152 98.072 563.129 95.9541 554.254 91.7676L553.4 93.5764C562.616 97.9232 573.95 100.072 587.363 100.072V98.072ZM554.26 91.7705C552.151 90.7581 550.084 89.6614 548.059 88.4802L547.051 90.2078C549.122 91.4159 551.237 92.5379 553.394 93.5735L554.26 91.7705ZM548.101 88.5064C546.204 87.2692 543.99 85.4762 541.453 83.1089L540.089 84.5711C542.672 86.9825 544.98 88.8588 547.009 90.1816L548.101 88.5064ZM541.466 83.121C538.959 80.6976 536.789 78.0683 534.955 75.2327L533.275 76.3193C535.195 79.2864 537.463 82.033 540.076 84.559L541.466 83.121ZM534.966 75.2505C533.233 72.4453 531.729 68.9066 530.466 64.6138L528.548 65.1782C529.845 69.5894 531.413 73.304 533.264 76.3015L534.966 75.2505ZM530.466 64.6138C529.216 60.3629 528.587 55.7655 528.587 50.816H526.587C526.587 55.9358 527.238 60.7251 528.548 65.1782L530.466 64.6138ZM528.587 50.816C528.587 48.969 528.671 47.0779 528.839 45.1426L526.847 44.9694C526.674 46.9594 526.587 48.9084 526.587 50.816H528.587ZM528.835 45.1853C529.083 43.2792 529.627 40.6344 530.477 37.2345L528.537 36.7495C527.68 40.1762 527.115 42.9075 526.851 44.9267L528.835 45.1853ZM530.471 37.2572C531.392 33.9087 532.603 30.82 534.103 27.9879L532.335 27.0521C530.763 30.0227 529.499 33.2486 528.543 36.7268L530.471 37.2572ZM534.098 27.9971C535.667 25.1066 537.955 22.0617 540.985 18.8637L539.533 17.4883C536.419 20.7756 534.014 23.96 532.34 27.0429L534.098 27.9971ZM540.985 18.8637C543.985 15.6975 547.488 12.985 551.501 10.7276L550.521 8.98442C546.342 11.335 542.677 14.1691 539.533 17.4883L540.985 18.8637ZM551.501 10.7276C555.492 8.48294 560.645 6.59072 566.988 5.06838L566.522 3.12361C560.065 4.67327 554.722 6.62105 550.521 8.98442L551.501 10.7276ZM566.985 5.06907C573.383 3.55397 580.514 2.79199 588.387 2.79199V0.791992C580.388 0.791992 573.098 1.56602 566.525 3.12291L566.985 5.06907ZM588.387 2.79199C610.127 2.79199 625.133 7.68195 633.725 17.1827L635.209 15.8412C626.051 5.71537 610.338 0.791992 588.387 0.791992V2.79199ZM633.734 17.1924C636.943 20.6483 639.438 25.1188 641.194 30.6392L643.1 30.0328C641.272 24.2891 638.647 19.5437 635.2 15.8315L633.734 17.1924ZM757.342 96V97H758.342V96H757.342ZM660.83 96H659.83V97H660.83V96ZM660.83 5.632V4.632H659.83V5.632H660.83ZM756.19 5.632H757.19V4.632H756.19V5.632ZM756.19 25.856V26.856H757.19V25.856H756.19ZM693.214 25.856V24.856H692.214V25.856H693.214ZM693.214 40.704H692.214V41.704H693.214V40.704ZM751.454 40.704H752.454V39.704H751.454V40.704ZM751.454 61.056V62.056H752.454V61.056H751.454ZM693.214 61.056V60.056H692.214V61.056H693.214ZM693.214 75.52H692.214V76.52H693.214V75.52ZM757.342 75.52H758.342V74.52H757.342V75.52ZM757.342 95H660.83V97H757.342V95ZM661.83 96V5.632H659.83V96H661.83ZM660.83 6.632H756.19V4.632H660.83V6.632ZM755.19 5.632V25.856H757.19V5.632H755.19ZM756.19 24.856H693.214V26.856H756.19V24.856ZM692.214 25.856V40.704H694.214V25.856H692.214ZM693.214 41.704H751.454V39.704H693.214V41.704ZM750.454 40.704V61.056H752.454V40.704H750.454ZM751.454 60.056H693.214V62.056H751.454V60.056ZM692.214 61.056V75.52H694.214V61.056H692.214ZM693.214 76.52H757.342V74.52H693.214V76.52ZM756.342 75.52V96H758.342V75.52H756.342ZM770.205 68.992L770.177 67.9924L769.095 68.0228L769.211 69.0991L770.205 68.992ZM802.077 68.096L803.053 67.8791L802.874 67.0732L802.049 67.0964L802.077 68.096ZM833.565 76.032L833.066 75.1653L833.054 75.1721L833.565 76.032ZM828.445 61.696L828.646 60.7164L828.638 60.7148L828.445 61.696ZM806.301 57.344L806.103 58.3243L806.108 58.3252L806.301 57.344ZM782.237 48.128L781.614 48.9102L781.622 48.9166L782.237 48.128ZM779.549 16.256L780.345 16.8611L780.354 16.85L780.362 16.8386L779.549 16.256ZM848.669 5.376L848.331 6.31719L848.339 6.31987L848.346 6.32243L848.669 5.376ZM864.669 18.176L865.548 17.6989L865.544 17.692L865.54 17.6852L864.669 18.176ZM867.741 28.16L867.798 29.1584L868.857 29.0984L868.734 28.0445L867.741 28.16ZM836.125 29.952L835.153 30.1866L835.349 30.9976L836.182 30.9504L836.125 29.952ZM832.157 24.32L831.602 25.1521L831.615 25.1602L831.627 25.168L832.157 24.32ZM826.397 22.016L826.249 23.0049L826.275 23.0089L826.302 23.0115L826.397 22.016ZM809.757 34.304L809.334 35.2103L809.345 35.2154L809.757 34.304ZM824.605 38.272L824.803 37.2918L824.801 37.2914L824.605 38.272ZM835.997 40.576L836.199 39.5965L836.195 39.5958L835.997 40.576ZM841.885 41.856L841.642 42.8261L841.681 42.8358L841.721 42.8424L841.885 41.856ZM847.773 43.392L847.491 44.3514L847.507 44.3562L847.524 44.3605L847.773 43.392ZM854.301 45.568L853.854 46.4624L853.864 46.4677L853.875 46.4728L854.301 45.568ZM859.805 48.768L859.258 49.605L859.276 49.617L859.295 49.6283L859.805 48.768ZM864.925 53.248L864.1 53.8127L864.107 53.8232L864.114 53.8335L864.925 53.248ZM867.869 59.136L866.927 59.4723L866.935 59.493L866.943 59.5133L867.869 59.136ZM863.517 83.712L864.306 84.326L864.312 84.3185L863.517 83.712ZM770.233 69.9916L802.105 69.0956L802.049 67.0964L770.177 67.9924L770.233 69.9916ZM801.101 68.3129C801.937 72.0767 804.187 74.9044 807.76 76.7595C811.289 78.5918 816.079 79.464 822.045 79.464V77.464C816.235 77.464 811.809 76.6082 808.682 74.9845C805.599 73.3836 803.753 71.0273 803.053 67.8791L801.101 68.3129ZM822.045 79.464C827.082 79.464 831.127 78.6425 834.076 76.8919L833.054 75.1721C830.542 76.6641 826.906 77.464 822.045 77.464V79.464ZM834.064 76.8986C837.133 75.1317 838.789 72.611 838.789 69.376H836.789C836.789 71.773 835.629 73.6897 833.066 75.1654L834.064 76.8986ZM838.789 69.376C838.789 67.1401 837.863 65.2625 836.088 63.8035C834.353 62.3773 831.837 61.3722 828.646 60.7165L828.244 62.6755C831.282 63.2998 833.438 64.2146 834.818 65.3485C836.158 66.4495 836.789 67.7719 836.789 69.376H838.789ZM828.638 60.7148L806.494 56.3628L806.108 58.3252L828.252 62.6772L828.638 60.7148ZM806.499 56.3637C795.544 54.1558 787.704 51.1223 782.852 47.3394L781.622 48.9166C786.839 52.9844 795.042 56.0949 806.103 58.3243L806.499 56.3637ZM782.86 47.3458C778.105 43.5577 775.685 38.1097 775.685 30.848H773.685C773.685 38.6049 776.3 44.6769 781.614 48.9102L782.86 47.3458ZM775.685 30.848C775.685 25.6007 777.237 20.9502 780.345 16.8611L778.753 15.6509C775.375 20.0951 773.685 25.1726 773.685 30.848H775.685ZM780.362 16.8386C786.985 7.59853 800.127 2.79199 820.253 2.79199V0.791992C799.931 0.791992 785.937 5.62812 778.736 15.6734L780.362 16.8386ZM820.253 2.79199C832.498 2.79199 841.835 3.9853 848.331 6.31719L849.007 4.4348C842.191 1.98802 832.584 0.791992 820.253 0.791992V2.79199ZM848.346 6.32243C855.393 8.7265 860.518 12.8447 863.798 18.6668L865.54 17.6852C861.994 11.3899 856.452 6.97483 848.992 4.42957L848.346 6.32243ZM863.79 18.6531C865.346 21.5182 866.334 24.7218 866.748 28.2755L868.734 28.0445C868.294 24.2595 867.235 20.8071 865.548 17.6989L863.79 18.6531ZM867.684 27.1616L836.068 28.9536L836.182 30.9504L867.798 29.1584L867.684 27.1616ZM837.097 29.7174C836.442 27.0035 834.97 24.8988 832.687 23.472L831.627 25.168C833.44 26.3012 834.613 27.9511 835.153 30.1866L837.097 29.7174ZM832.712 23.4879C830.574 22.063 828.497 21.2115 826.492 21.0205L826.302 23.0115C827.88 23.1618 829.644 23.8463 831.602 25.1521L832.712 23.4879ZM826.545 21.0271C824.774 20.7613 822.63 20.632 820.125 20.632V22.632C822.569 22.632 824.607 22.7587 826.249 23.0049L826.545 21.0271ZM820.125 20.632C815.337 20.632 811.597 21.2305 809.019 22.5312C807.715 23.1887 806.679 24.0409 805.971 25.1127C805.259 26.1904 804.917 27.4322 804.917 28.8H806.917C806.917 27.7785 807.167 26.9296 807.639 26.2153C808.115 25.4951 808.855 24.8539 809.919 24.3168C812.077 23.2281 815.441 22.632 820.125 22.632V20.632ZM804.917 28.8C804.917 30.2193 805.287 31.5013 806.057 32.6042C806.821 33.6991 807.936 34.5577 809.334 35.2102L810.18 33.3978C809.018 32.8556 808.213 32.1995 807.697 31.4598C807.187 30.728 806.917 29.8554 806.917 28.8H804.917ZM809.345 35.2154C812.107 36.4626 817.161 37.803 824.409 39.2526L824.801 37.2914C817.542 35.8397 812.697 34.5347 810.169 33.3926L809.345 35.2154ZM824.407 39.2522L835.799 41.5562L836.195 39.5958L824.803 37.2918L824.407 39.2522ZM835.795 41.5555C838.699 42.1533 840.642 42.576 841.642 42.8261L842.128 40.8859C841.08 40.624 839.098 40.1934 836.199 39.5965L835.795 41.5555ZM841.721 42.8424C842.675 43.0015 844.581 43.4955 847.491 44.3514L848.055 42.4326C845.162 41.5818 843.143 41.0518 842.049 40.8696L841.721 42.8424ZM847.524 44.3605C850.497 45.1249 852.588 45.8293 853.854 46.4624L854.748 44.6736C853.284 43.9414 851.023 43.1951 848.022 42.4235L847.524 44.3605ZM853.875 46.4728C855.266 47.1271 857.056 48.1656 859.258 49.605L860.352 47.931C858.116 46.4691 856.238 45.3742 854.727 44.6632L853.875 46.4728ZM859.295 49.6283C861.517 50.9448 863.097 52.3471 864.1 53.8127L865.75 52.6833C864.534 50.9062 862.701 49.3219 860.315 47.9077L859.295 49.6283ZM864.114 53.8335C865.153 55.2722 866.096 57.1438 866.927 59.4723L868.811 58.7997C867.936 56.3495 866.915 54.2958 865.736 52.6625L864.114 53.8335ZM866.943 59.5133C867.828 61.6863 868.277 64.074 868.277 66.688H870.277C870.277 63.8406 869.787 61.1937 868.795 58.7587L866.943 59.5133ZM868.277 66.688C868.277 72.7829 866.429 78.2446 862.722 83.1056L864.312 84.3185C868.285 79.1101 870.277 73.2225 870.277 66.688H868.277ZM862.728 83.0981C855.261 92.6979 840.321 97.688 817.437 97.688V99.688C840.462 99.688 856.242 94.6941 864.306 84.3259L862.728 83.0981ZM817.437 97.688C802.848 97.688 791.791 95.2242 784.145 90.4174C776.553 85.6437 772.236 78.5041 771.199 68.8849L769.211 69.0991C770.307 79.2772 774.929 86.9856 783.081 92.1106C791.179 97.2025 802.671 99.688 817.437 99.688V97.688Z" fill="#242426"/>
</svg>
