<?xml version="1.0" encoding="UTF-8" standalone="no"?>
<svg
   xmlns:dc="http://purl.org/dc/elements/1.1/"
   xmlns:cc="http://creativecommons.org/ns#"
   xmlns:rdf="http://www.w3.org/1999/02/22-rdf-syntax-ns#"
   xmlns:svg="http://www.w3.org/2000/svg"
   xmlns="http://www.w3.org/2000/svg"
   xmlns:sodipodi="http://sodipodi.sourceforge.net/DTD/sodipodi-0.dtd"
   xmlns:inkscape="http://www.inkscape.org/namespaces/inkscape"
   width="288"
   height="47"
   viewBox="0 0 288 47"
   fill="none"
   id="svg2"
   version="1.1"
   inkscape:version="0.91 r13725"
   sodipodi:docname="works__mobile.svg">
  <metadata
     id="metadata10">
    <rdf:RDF>
      <cc:Work
         rdf:about="">
        <dc:format>image/svg+xml</dc:format>
        <dc:type
           rdf:resource="http://purl.org/dc/dcmitype/StillImage" />
        <dc:title></dc:title>
      </cc:Work>
    </rdf:RDF>
  </metadata>
  <defs
     id="defs8" />
  <sodipodi:namedview
     pagecolor="#ffffff"
     bordercolor="#666666"
     borderopacity="1"
     objecttolerance="10"
     gridtolerance="10"
     guidetolerance="10"
     inkscape:pageopacity="0"
     inkscape:pageshadow="2"
     inkscape:window-width="852"
     inkscape:window-height="480"
     id="namedview6"
     showgrid="false"
     inkscape:zoom="1.3194444"
     inkscape:cx="144"
     inkscape:cy="23.5"
     inkscape:window-x="478"
     inkscape:window-y="464"
     inkscape:window-maximized="0"
     inkscape:current-layer="svg2" />
  <path
     d="M66.452 3.052L67.4242 3.2861L67.7214 2.052H66.452V3.052ZM56.592 44V45H57.3798L57.5642 44.2341L56.592 44ZM40.874 44L39.9039 44.2425L40.0932 45H40.874V44ZM34.494 18.48L35.4641 18.2375L33.5249 18.2333L34.494 18.48ZM27.998 44V45H28.7753L28.9671 44.2467L27.998 44ZM12.164 44L11.1921 44.2354L11.3773 45H12.164V44ZM2.246 3.052V2.052H0.974876L1.2741 3.2874L2.246 3.052ZM16.572 3.052L17.5576 2.88303L17.4152 2.052H16.572V3.052ZM21.096 29.442L20.1104 29.611L22.0704 29.6669L21.096 29.442ZM27.186 3.052V2.052H26.3905L26.2116 2.82714L27.186 3.052ZM42.15 3.052L43.1283 2.84468L42.9603 2.052H42.15V3.052ZM47.718 29.326L46.7397 29.5333L48.7039 29.4936L47.718 29.326ZM52.184 3.052V2.052H51.3396L51.1981 2.88442L52.184 3.052ZM65.4798 2.8179L55.6198 43.7659L57.5642 44.2341L67.4242 3.2861L65.4798 2.8179ZM56.592 43H40.874V45H56.592V43ZM41.8441 43.7575L35.4641 18.2375L33.5239 18.7225L39.9039 44.2425L41.8441 43.7575ZM33.5249 18.2333L27.0289 43.7533L28.9671 44.2467L35.4631 18.7267L33.5249 18.2333ZM27.998 43H12.164V45H27.998V43ZM13.1359 43.7646L3.2179 2.8166L1.2741 3.2874L11.1921 44.2354L13.1359 43.7646ZM2.246 4.052H16.572V2.052H2.246V4.052ZM15.5864 3.22096L20.1104 29.611L22.0816 29.273L17.5576 2.88303L15.5864 3.22096ZM22.0704 29.6669L28.1604 3.27686L26.2116 2.82714L20.1216 29.2171L22.0704 29.6669ZM27.186 4.052H42.15V2.052H27.186V4.052ZM41.1717 3.25931L46.7397 29.5333L48.6963 29.1187L43.1283 2.84468L41.1717 3.25931ZM48.7039 29.4936L53.1699 3.21957L51.1981 2.88442L46.7321 29.1584L48.7039 29.4936ZM52.184 4.052H66.452V2.052H52.184V4.052ZM117.681 40.868L118.242 41.6961L118.243 41.6951L117.681 40.868ZM109.503 44.406L109.721 45.3819L109.721 45.3819L109.503 44.406ZM81.953 41.506L81.448 42.3693L81.4592 42.3756L81.953 41.506ZM76.791 37.272L76.0317 37.9228L76.0317 37.9228L76.791 37.272ZM73.775 32.284L72.8284 32.6067L72.8317 32.6162L72.8352 32.6257L73.775 32.284ZM72.557 27.876L71.5682 28.0258L71.5709 28.0431L71.5741 28.0603L72.557 27.876ZM73.079 17.378L72.1154 17.1104L72.1131 17.1187L72.111 17.127L73.079 17.378ZM75.399 12.1L76.2275 12.6599L76.2275 12.6599L75.399 12.1ZM78.183 8.562L77.4758 7.85489L77.4683 7.86241L77.461 7.87009L78.183 8.562ZM81.141 6.126L81.6957 6.95809L81.7038 6.95253L81.141 6.126ZM115.361 4.444L114.906 5.33464L114.914 5.33842L115.361 4.444ZM119.885 7.402L119.216 8.14529L119.223 8.15155L119.23 8.15769L119.885 7.402ZM123.017 10.94L123.846 10.3813L123.842 10.3745L123.017 10.94ZM109.387 15.464L108.517 15.9576L108.523 15.9679L109.387 15.464ZM105.617 11.984L105.145 12.8658L105.154 12.8702L105.617 11.984ZM90.479 14.42L89.7156 13.7741L89.7147 13.7751L90.479 14.42ZM87.985 27.934L87.0264 28.219L87.0286 28.2262L87.985 27.934ZM89.957 31.994L90.7852 31.4337L90.7852 31.4337L89.957 31.994ZM93.785 35.184L93.3461 36.0826L93.3586 36.0886L93.3712 36.0944L93.785 35.184ZM111.185 27.47L112.157 27.7056L112.158 27.699L111.185 27.47ZM125.729 23.352C125.729 30.6149 122.864 36.1369 117.119 40.0409L118.243 41.6951C124.562 37.4018 127.729 31.2464 127.729 23.352H125.729ZM117.12 40.0399C114.71 41.6715 112.1 42.8004 109.285 43.4301L109.721 45.3819C112.783 44.697 115.625 43.4672 118.242 41.6961L117.12 40.0399ZM109.285 43.4301C106.435 44.0675 103.089 44.392 99.237 44.392V46.392C103.195 46.392 106.693 46.0592 109.721 45.3819L109.285 43.4301ZM99.237 44.392C92.3954 44.392 86.8176 43.1181 82.4467 40.6364L81.4592 42.3756C86.2137 45.0752 92.1585 46.392 99.237 46.392V44.392ZM82.4578 40.6428C80.494 39.4942 78.8623 38.152 77.5502 36.6212L76.0317 37.9228C77.5036 39.64 79.3132 41.1205 81.4481 42.3692L82.4578 40.6428ZM77.5502 36.6212C76.2226 35.0723 75.2856 33.5121 74.7147 31.9423L72.8352 32.6257C73.5016 34.4586 74.5753 36.2237 76.0317 37.9228L77.5502 36.6212ZM74.7215 31.9613C74.1509 30.2878 73.7602 28.867 73.5398 27.6917L71.5741 28.0603C71.8177 29.3597 72.239 30.8775 72.8284 32.6067L74.7215 31.9613ZM73.5457 27.7262C73.3593 26.496 73.267 25.3089 73.267 24.164H71.267C71.267 25.4165 71.368 26.704 71.5682 28.0258L73.5457 27.7262ZM73.267 24.164C73.267 21.8019 73.5294 19.6252 74.047 17.629L72.111 17.127C71.5458 19.3068 71.267 21.6541 71.267 24.164H73.267ZM74.0425 17.6456C74.6006 15.6363 75.3345 13.9816 76.2275 12.6599L74.5704 11.5401C73.5301 13.0798 72.7173 14.9437 72.1154 17.1104L74.0425 17.6456ZM76.2275 12.6599C77.1725 11.2613 78.0655 10.1298 78.9049 9.25391L77.461 7.87009C76.5217 8.85018 75.5587 10.0774 74.5704 11.5401L76.2275 12.6599ZM78.8901 9.26911C79.7736 8.38554 80.7089 7.61588 81.6957 6.95805L80.5863 5.29395C79.485 6.02811 78.4483 6.88246 77.4758 7.85489L78.8901 9.26911ZM81.7038 6.95253C85.9686 4.04807 91.8003 2.544 99.295 2.544V0.543997C91.555 0.543997 85.284 2.09459 80.5781 5.29947L81.7038 6.95253ZM99.295 2.544C102.729 2.544 105.759 2.79218 108.392 3.28119L108.758 1.31481C105.977 0.798485 102.821 0.543997 99.295 0.543997V2.544ZM108.392 3.28119C111.035 3.77197 113.199 4.46266 114.906 5.3346L115.816 3.55339C113.889 2.56934 111.528 1.82936 108.758 1.31481L108.392 3.28119ZM114.914 5.33842C116.714 6.23858 118.141 7.17743 119.216 8.14529L120.554 6.6587C119.309 5.53857 117.72 4.50541 115.808 3.54957L114.914 5.33842ZM119.23 8.15769C120.321 9.10343 121.309 10.2177 122.192 11.5055L123.842 10.3745C122.869 8.9556 121.769 7.71124 120.54 6.64631L119.23 8.15769ZM122.188 11.4987C124.547 15.0003 125.729 18.9415 125.729 23.352H127.729C127.729 18.5598 126.437 14.2264 123.846 10.3813L122.188 11.4987ZM112.649 23.468C112.649 22.064 112.463 20.6634 112.094 19.2681L110.16 19.7799C110.487 21.0139 110.649 22.2426 110.649 23.468H112.649ZM112.094 19.2681C111.719 17.8522 111.1 16.4159 110.251 14.9601L108.523 15.9679C109.298 17.2961 109.839 18.5664 110.16 19.7799L112.094 19.2681ZM110.257 14.9704C109.335 13.3461 107.923 12.061 106.08 11.0978L105.154 12.8702C106.714 13.6857 107.815 14.7205 108.517 15.9576L110.257 14.9704ZM106.089 11.1022C104.251 10.1194 102.09 9.65 99.643 9.65V11.65C101.836 11.65 103.657 12.07 105.145 12.8658L106.089 11.1022ZM99.643 9.65C95.4338 9.65 92.072 10.9892 89.7156 13.7741L91.2423 15.0659C93.1392 12.8241 95.8868 11.65 99.643 11.65V9.65ZM89.7147 13.7751C87.4574 16.4504 86.347 19.7219 86.347 23.526H88.347C88.347 20.1381 89.3245 17.3389 91.2432 15.0649L89.7147 13.7751ZM86.347 23.526C86.347 25.1295 86.5733 26.6948 87.0264 28.219L88.9435 27.649C88.5459 26.3118 88.347 24.9385 88.347 23.526H86.347ZM87.0286 28.2262C87.4855 29.7217 88.1886 31.1646 89.1287 32.5543L90.7852 31.4337C89.9467 30.1941 89.335 28.9303 88.9413 27.6418L87.0286 28.2262ZM89.1287 32.5543C90.1312 34.0363 91.5526 35.2067 93.3461 36.0826L94.2238 34.2854C92.692 33.5373 91.5614 32.581 90.7852 31.4337L89.1287 32.5543ZM93.3712 36.0944C95.2258 36.9374 97.3436 37.344 99.701 37.344V35.344C97.573 35.344 95.7468 34.9773 94.1988 34.2736L93.3712 36.0944ZM99.701 37.344C102.22 37.344 104.437 36.8766 106.312 35.8962L105.386 34.1238C103.859 34.922 101.976 35.344 99.701 35.344V37.344ZM106.312 35.8962C108.158 34.9316 109.556 33.6413 110.441 32.0055L108.681 31.0545C108.019 32.2801 106.943 33.3098 105.386 34.1238L106.312 35.8962ZM110.441 32.0055C111.246 30.5164 111.823 29.0823 112.157 27.7056L110.213 27.2344C109.928 28.4097 109.423 29.6823 108.681 31.0545L110.441 32.0055ZM112.158 27.699C112.485 26.3092 112.649 24.8983 112.649 23.468H110.649C110.649 24.7444 110.503 26.0015 110.212 27.241L112.158 27.699ZM183.249 44V45H185.052L184.097 43.4705L183.249 44ZM167.067 44L166.198 44.494L166.485 45H167.067V44ZM158.599 29.094L159.469 28.6L159.181 28.094H158.599V29.094ZM150.827 29.094V28.094H149.827V29.094H150.827ZM150.827 44V45H151.827V44H150.827ZM136.095 44H135.095V45H136.095V44ZM136.095 3.052V2.052H135.095V3.052H136.095ZM174.723 4.096L174.427 5.05106L174.427 5.05106L174.723 4.096ZM180.349 8.678L181.199 8.15059L181.192 8.13934L180.349 8.678ZM182.321 18.074L183.314 18.1908L183.314 18.1908L182.321 18.074ZM181.625 20.684L180.683 20.3477L180.68 20.3577L180.676 20.3678L181.625 20.684ZM180.117 23.526L179.326 22.9146L179.317 22.9261L179.308 22.9378L180.117 23.526ZM177.333 25.962L176.803 25.114L176.797 25.1178L176.791 25.1217L177.333 25.962ZM173.041 27.644L172.836 26.6652L171.434 26.9586L172.193 28.1735L173.041 27.644ZM150.827 12.332V11.332H149.827V12.332H150.827ZM150.827 19.872H149.827V20.872H150.827V19.872ZM167.009 18.422L167.775 19.0652L167.781 19.0577L167.009 18.422ZM167.183 14.014L166.36 14.5817L166.368 14.5937L166.377 14.6054L167.183 14.014ZM183.249 43H167.067V45H183.249V43ZM167.937 43.506L159.469 28.6L157.73 29.588L166.198 44.494L167.937 43.506ZM158.599 28.094H150.827V30.094H158.599V28.094ZM149.827 29.094V44H151.827V29.094H149.827ZM150.827 43H136.095V45H150.827V43ZM137.095 44V3.052H135.095V44H137.095ZM136.095 4.052H166.255V2.052H136.095V4.052ZM166.255 4.052C169.598 4.052 172.312 4.39494 174.427 5.05106L175.019 3.14093C172.648 2.40506 169.717 2.052 166.255 2.052V4.052ZM174.427 5.05106C176.402 5.66419 178.1 7.01691 179.507 9.21666L181.192 8.13934C179.582 5.62175 177.529 3.91981 175.019 3.14093L174.427 5.05106ZM179.499 9.20536C180.792 11.2879 181.437 13.5602 181.437 16.044H183.437C183.437 13.1918 182.69 10.5534 181.199 8.15064L179.499 9.20536ZM181.437 16.044C181.437 16.7029 181.4 17.3405 181.328 17.9572L183.314 18.1908C183.396 17.4928 183.437 16.7771 183.437 16.044H181.437ZM181.328 17.9572C181.264 18.5044 181.06 19.2922 180.683 20.3477L182.567 21.0203C182.963 19.9105 183.224 18.9583 183.314 18.1908L181.328 17.9572ZM180.676 20.3678C180.363 21.3078 179.913 22.1549 179.326 22.9146L180.908 24.1374C181.636 23.1958 182.191 22.1482 182.574 21.0002L180.676 20.3678ZM179.308 22.9378C178.788 23.6531 177.971 24.3841 176.803 25.114L177.863 26.81C179.17 25.9932 180.209 25.1003 180.926 24.1142L179.308 22.9378ZM176.791 25.1217C175.713 25.8172 174.401 26.3376 172.836 26.6652L173.246 28.6228C175.006 28.2544 176.556 27.6534 177.875 26.8023L176.791 25.1217ZM172.193 28.1735L182.401 44.5295L184.097 43.4705L173.889 27.1145L172.193 28.1735ZM149.827 12.332V19.872H151.827V12.332H149.827ZM150.827 20.872H161.847V18.872H150.827V20.872ZM161.847 20.872C163.214 20.872 164.401 20.7473 165.38 20.4722C166.356 20.1979 167.196 19.7541 167.775 19.0652L166.243 17.7788C166.01 18.0565 165.583 18.3377 164.839 18.5468C164.098 18.7551 163.109 18.872 161.847 18.872V20.872ZM167.781 19.0577C168.477 18.2129 168.821 17.2121 168.821 16.102H166.821C166.821 16.7705 166.624 17.3164 166.237 17.7863L167.781 19.0577ZM168.821 16.102C168.821 15.106 168.557 14.1959 167.989 13.4226L166.377 14.6054C166.66 14.9921 166.821 15.474 166.821 16.102H168.821ZM168.006 13.4463C166.969 11.9417 165.181 11.332 163.007 11.332V13.332C164.855 13.332 165.851 13.8437 166.36 14.5817L168.006 13.4463ZM163.007 11.332H150.827V13.332H163.007V11.332ZM239.277 44V45H241.203L240.094 43.4244L239.277 44ZM221.645 44L220.823 44.5695L221.121 45H221.645V44ZM210.915 28.514L211.737 27.9445L211.07 26.9829L210.224 27.7906L210.915 28.514ZM205.811 33.386L205.12 32.6626L204.811 32.9581V33.386H205.811ZM205.811 44V45H206.811V44H205.811ZM192.239 44H191.239V45H192.239V44ZM192.239 3.052V2.052H191.239V3.052H192.239ZM205.869 3.052H206.869V2.052H205.869V3.052ZM205.869 18.364H204.869V20.9749L206.613 19.032L205.869 18.364ZM219.615 3.052V2.052H219.168L218.87 2.38397L219.615 3.052ZM237.421 3.052L238.115 3.77198L239.899 2.052H237.421V3.052ZM221.355 18.538L220.661 17.818L220.044 18.4128L220.537 19.1136L221.355 18.538ZM239.277 43H221.645V45H239.277V43ZM222.467 43.4305L211.737 27.9445L210.093 29.0835L220.823 44.5695L222.467 43.4305ZM210.224 27.7906L205.12 32.6626L206.501 34.1094L211.605 29.2374L210.224 27.7906ZM204.811 33.386V44H206.811V33.386H204.811ZM205.811 43H192.239V45H205.811V43ZM193.239 44V3.052H191.239V44H193.239ZM192.239 4.052H205.869V2.052H192.239V4.052ZM204.869 3.052V18.364H206.869V3.052H204.869ZM206.613 19.032L220.359 3.72003L218.87 2.38397L205.124 17.696L206.613 19.032ZM219.615 4.052H237.421V2.052H219.615V4.052ZM236.727 2.33201L220.661 17.818L222.049 19.258L238.115 3.77198L236.727 2.33201ZM220.537 19.1136L238.459 44.5756L240.094 43.4244L222.172 17.9624L220.537 19.1136ZM241.459 31.762L241.431 30.7624L240.349 30.7928L240.465 31.8691L241.459 31.762ZM255.901 31.356L256.877 31.1391L256.698 30.3332L255.873 30.3564L255.901 31.356ZM270.169 34.952L269.67 34.0853L269.659 34.0921L270.169 34.952ZM267.849 28.456L268.051 27.4764L268.042 27.4748L267.849 28.456ZM257.815 26.484L257.618 27.4643L257.622 27.4652L257.815 26.484ZM246.911 22.308L246.288 23.0902L246.296 23.0966L246.911 22.308ZM245.693 7.866L246.489 8.47108L246.498 8.45996L246.506 8.4486L245.693 7.866ZM277.013 2.936L276.675 3.87719L276.683 3.87987L276.69 3.88243L277.013 2.936ZM284.263 8.736L285.142 8.25891L285.138 8.252L285.135 8.24515L284.263 8.736ZM285.655 13.26L285.712 14.2584L286.771 14.1984L286.649 13.1445L285.655 13.26ZM271.329 14.072L270.357 14.3066L270.553 15.1176L271.386 15.0704L271.329 14.072ZM269.531 11.52L268.977 12.352L268.989 12.3602L269.001 12.368L269.531 11.52ZM266.921 10.476L266.773 11.4649L266.8 11.4689L266.826 11.4715L266.921 10.476ZM259.381 16.044L258.958 16.9503L258.97 16.9554L259.381 16.044ZM266.109 17.842L266.308 16.8618L266.305 16.8614L266.109 17.842ZM271.271 18.886L271.473 17.9065L271.47 17.9058L271.271 18.886ZM273.939 19.466L273.697 20.4361L273.736 20.4458L273.775 20.4524L273.939 19.466ZM276.607 20.162L276.325 21.1214L276.342 21.1262L276.358 21.1305L276.607 20.162ZM279.565 21.148L279.118 22.0424L279.129 22.0477L279.14 22.0528L279.565 21.148ZM282.059 22.598L281.512 23.435L281.531 23.447L281.55 23.4583L282.059 22.598ZM284.379 24.628L283.554 25.1927L283.561 25.2032L283.569 25.2135L284.379 24.628ZM285.713 27.296L284.772 27.6323L284.779 27.653L284.787 27.6733L285.713 27.296ZM283.741 38.432L284.531 39.046L284.536 39.0384L283.741 38.432ZM241.487 32.7616L255.929 32.3556L255.873 30.3564L241.431 30.7624L241.487 32.7616ZM254.925 31.5729C255.342 33.4467 256.472 34.8569 258.224 35.767C259.933 36.6543 262.203 37.054 264.949 37.054V35.054C262.359 35.054 260.453 34.6707 259.146 33.992C257.883 33.3361 257.157 32.3973 256.877 31.1391L254.925 31.5729ZM264.949 37.054C267.28 37.054 269.225 36.6759 270.68 35.8119L269.659 34.0921C268.639 34.6975 267.104 35.054 264.949 35.054V37.054ZM270.668 35.8186C272.197 34.9383 273.083 33.631 273.083 31.936H271.083C271.083 32.793 270.693 33.4963 269.67 34.0854L270.668 35.8186ZM273.083 31.936C273.083 30.7501 272.583 29.7475 271.66 28.9885C270.776 28.2624 269.538 27.7822 268.051 27.4765L267.648 29.4355C268.983 29.7098 269.862 30.0996 270.39 30.5335C270.878 30.9345 271.083 31.3819 271.083 31.936H273.083ZM268.042 27.4748L258.008 25.5028L257.622 27.4652L267.656 29.4372L268.042 27.4748ZM258.013 25.5037C253.078 24.5091 249.625 23.1556 247.526 21.5194L246.296 23.0966C248.76 25.0177 252.577 26.4482 257.618 27.4643L258.013 25.5037ZM247.534 21.5258C245.532 19.9311 244.489 17.6331 244.489 14.478H242.489C242.489 18.1283 243.727 21.0503 246.288 23.0902L247.534 21.5258ZM244.489 14.478C244.489 12.2174 245.155 10.2269 246.489 8.47108L244.897 7.26092C243.293 9.3718 242.489 11.7893 242.489 14.478H244.489ZM246.506 8.4486C249.349 4.48187 255.071 2.312 264.137 2.312V0.311996C254.875 0.311996 248.301 2.51146 244.881 7.2834L246.506 8.4486ZM264.137 2.312C269.662 2.312 273.819 2.85197 276.675 3.87719L277.351 1.99481C274.175 0.85469 269.749 0.311996 264.137 0.311996V2.312ZM276.69 3.88243C279.77 4.93317 281.979 6.71805 283.392 9.22684L285.135 8.24515C283.455 5.26328 280.83 3.1815 277.336 1.98957L276.69 3.88243ZM283.384 9.21309C284.053 10.4449 284.482 11.8285 284.662 13.3755L286.649 13.1445C286.442 11.3662 285.943 9.73378 285.142 8.25891L283.384 9.21309ZM285.599 12.2616L271.273 13.0736L271.386 15.0704L285.712 14.2584L285.599 12.2616ZM272.301 13.8374C271.973 12.4768 271.224 11.3988 270.061 10.672L269.001 12.368C269.694 12.8012 270.144 13.4245 270.357 14.3066L272.301 13.8374ZM270.086 10.688C269.069 10.0097 268.042 9.57819 267.016 9.4805L266.826 11.4715C267.425 11.5285 268.138 11.7929 268.977 12.352L270.086 10.688ZM267.07 9.48706C266.231 9.36129 265.231 9.302 264.079 9.302V11.302C265.17 11.302 266.065 11.3587 266.773 11.4649L267.07 9.48706ZM264.079 9.302C261.882 9.302 260.083 9.57386 258.8 10.2212C258.145 10.5521 257.594 10.9959 257.209 11.5777C256.821 12.1654 256.641 12.8355 256.641 13.55H258.641C258.641 13.1818 258.73 12.9046 258.878 12.6803C259.03 12.4501 259.284 12.2173 259.701 12.0068C260.564 11.5715 261.985 11.302 264.079 11.302V9.302ZM256.641 13.55C256.641 14.2926 256.837 14.9855 257.256 15.5867C257.67 16.18 258.26 16.6244 258.958 16.9502L259.804 15.1378C259.342 14.9223 259.063 14.6804 258.896 14.4423C258.736 14.2122 258.641 13.9287 258.641 13.55H256.641ZM258.97 16.9554C260.285 17.5493 262.632 18.1663 265.913 18.8226L266.305 16.8614C263.013 16.203 260.875 15.6214 259.793 15.1326L258.97 16.9554ZM265.911 18.8222L271.073 19.8662L271.47 17.9058L266.308 16.8618L265.911 18.8222ZM271.07 19.8655C272.387 20.1366 273.256 20.326 273.697 20.4361L274.182 18.4959C273.694 18.374 272.785 18.1767 271.473 17.9065L271.07 19.8655ZM273.775 20.4524C274.17 20.5182 275.002 20.7322 276.325 21.1214L276.889 19.2026C275.583 18.8185 274.637 18.5685 274.104 18.4796L273.775 20.4524ZM276.358 21.1305C277.698 21.4749 278.598 21.7826 279.118 22.0424L280.013 20.2536C279.295 19.8947 278.224 19.5451 276.856 19.1935L276.358 21.1305ZM279.14 22.0528C279.737 22.3338 280.524 22.7889 281.512 23.435L282.607 21.761C281.584 21.0924 280.709 20.5809 279.991 20.2432L279.14 22.0528ZM281.55 23.4583C282.511 24.0281 283.158 24.6138 283.554 25.1927L285.205 24.0633C284.595 23.1729 283.696 22.4052 282.569 21.7377L281.55 23.4583ZM283.569 25.2135C284.001 25.8122 284.407 26.6105 284.772 27.6323L286.655 26.9597C286.247 25.8162 285.763 24.8358 285.19 24.0425L283.569 25.2135ZM284.787 27.6733C285.159 28.5863 285.351 29.5974 285.351 30.718H287.351C287.351 29.364 287.118 28.0937 286.639 26.9187L284.787 27.6733ZM285.351 30.718C285.351 33.3595 284.554 35.7179 282.946 37.8256L284.536 39.0384C286.409 36.5834 287.351 33.7991 287.351 30.718H285.351ZM282.952 37.8181C279.732 41.9579 273.192 44.218 262.861 44.218V46.218C273.333 46.218 280.713 43.9541 284.531 39.0459L282.952 37.8181ZM262.861 44.218C256.299 44.218 251.407 43.1075 248.067 41.0074C244.779 38.9404 242.907 35.8608 242.454 31.6549L240.465 31.8691C240.978 36.6339 243.156 40.2823 247.003 42.7006C250.796 45.0858 256.122 46.218 262.861 46.218V44.218Z"
     fill="#242426"
     id="path4" />
</svg>
