<?xml version="1.0" encoding="UTF-8" standalone="no"?>
<svg
   xmlns:dc="http://purl.org/dc/elements/1.1/"
   xmlns:cc="http://creativecommons.org/ns#"
   xmlns:rdf="http://www.w3.org/1999/02/22-rdf-syntax-ns#"
   xmlns:svg="http://www.w3.org/2000/svg"
   xmlns="http://www.w3.org/2000/svg"
   xmlns:sodipodi="http://sodipodi.sourceforge.net/DTD/sodipodi-0.dtd"
   xmlns:inkscape="http://www.inkscape.org/namespaces/inkscape"
   width="1050"
   height="107"
   viewBox="0 0 1050 107"
   fill="none"
   id="svg2"
   version="1.1"
   inkscape:version="0.91 r13725"
   sodipodi:docname="works__tablet.svg">
  <metadata
     id="metadata10">
    <rdf:RDF>
      <cc:Work
         rdf:about="">
        <dc:format>image/svg+xml</dc:format>
        <dc:type
           rdf:resource="http://purl.org/dc/dcmitype/StillImage" />
        <dc:title></dc:title>
      </cc:Work>
    </rdf:RDF>
  </metadata>
  <defs
     id="defs8" />
  <sodipodi:namedview
     pagecolor="#ffffff"
     bordercolor="#666666"
     borderopacity="1"
     objecttolerance="10"
     gridtolerance="10"
     guidetolerance="10"
     inkscape:pageopacity="0"
     inkscape:pageshadow="2"
     inkscape:window-width="852"
     inkscape:window-height="480"
     id="namedview6"
     showgrid="false"
     inkscape:zoom="0.36190476"
     inkscape:cx="525"
     inkscape:cy="53.5"
     inkscape:window-x="286"
     inkscape:window-y="368"
     inkscape:window-maximized="0"
     inkscape:current-layer="svg2" />
  <path
     d="M152.784 5.984L153.756 6.2181L154.053 4.984H152.784V5.984ZM129.664 102V103H130.452L130.636 102.234L129.664 102ZM92.808 102L91.8379 102.243L92.0272 103H92.808V102ZM77.848 42.16L78.8181 41.9175L76.8789 41.9133L77.848 42.16ZM62.616 102V103H63.3933L63.5851 102.247L62.616 102ZM25.488 102L24.5161 102.235L24.7013 103H25.488V102ZM2.232 5.984V4.984H0.960876L1.2601 6.2194L2.232 5.984ZM35.824 5.984L36.8096 5.81503L36.6672 4.984H35.824V5.984ZM46.432 67.864L45.4464 68.033L47.4064 68.0889L46.432 67.864ZM60.712 5.984V4.984H59.9165L59.7376 5.75914L60.712 5.984ZM95.8 5.984L96.7783 5.77668L96.6103 4.984H95.8V5.984ZM108.856 67.592L107.878 67.7993L109.842 67.7596L108.856 67.592ZM119.328 5.984V4.984H118.484L118.342 5.81642L119.328 5.984ZM151.812 5.74989L128.692 101.766L130.636 102.234L153.756 6.2181L151.812 5.74989ZM129.664 101H92.808V103H129.664V101ZM93.7782 101.757L78.8181 41.9175L76.8779 42.4025L91.8379 102.243L93.7782 101.757ZM76.8789 41.9133L61.6469 101.753L63.5851 102.247L78.8171 42.4067L76.8789 41.9133ZM62.616 101H25.488V103H62.616V101ZM26.4599 101.765L3.2039 5.74859L1.2601 6.2194L24.5161 102.235L26.4599 101.765ZM2.232 6.984H35.824V4.984H2.232V6.984ZM34.8384 6.15296L45.4464 68.033L47.4176 67.695L36.8096 5.81503L34.8384 6.15296ZM47.4064 68.0889L61.6864 6.20885L59.7376 5.75914L45.4576 67.6391L47.4064 68.0889ZM60.712 6.984H95.8V4.984H60.712V6.984ZM94.8217 6.19131L107.878 67.7993L109.834 67.3847L96.7783 5.77668L94.8217 6.19131ZM109.842 67.7596L120.314 6.15157L118.342 5.81642L107.87 67.4244L109.842 67.7596ZM119.328 6.984H152.784V4.984H119.328V6.984ZM203.785 70.992V71.992H204.785V70.992H203.785ZM155.233 70.992H154.233V71.992H155.233V70.992ZM155.233 47.192V46.192H154.233V47.192H155.233ZM203.785 47.192H204.785V46.192H203.785V47.192ZM203.785 69.992H155.233V71.992H203.785V69.992ZM156.233 70.992V47.192H154.233V70.992H156.233ZM155.233 48.192H203.785V46.192H155.233V48.192ZM202.785 47.192V70.992H204.785V47.192H202.785ZM356.518 5.984L357.491 6.2181L357.788 4.984H356.518V5.984ZM333.398 102V103H334.186L334.371 102.234L333.398 102ZM296.542 102L295.572 102.243L295.762 103H296.542V102ZM281.582 42.16L282.553 41.9175L280.613 41.9133L281.582 42.16ZM266.35 102V103H267.128L267.319 102.247L266.35 102ZM229.222 102L228.25 102.235L228.436 103H229.222V102ZM205.966 5.984V4.984H204.695L204.994 6.2194L205.966 5.984ZM239.558 5.984L240.544 5.81503L240.402 4.984H239.558V5.984ZM250.166 67.864L249.181 68.033L251.141 68.0889L250.166 67.864ZM264.446 5.984V4.984H263.651L263.472 5.75914L264.446 5.984ZM299.534 5.984L300.513 5.77668L300.345 4.984H299.534V5.984ZM312.59 67.592L311.612 67.7993L313.576 67.7596L312.59 67.592ZM323.062 5.984V4.984H322.218L322.077 5.81642L323.062 5.984ZM355.546 5.74989L332.426 101.766L334.371 102.234L357.491 6.2181L355.546 5.74989ZM333.398 101H296.542V103H333.398V101ZM297.513 101.757L282.553 41.9175L280.612 42.4025L295.572 102.243L297.513 101.757ZM280.613 41.9133L265.381 101.753L267.319 102.247L282.551 42.4067L280.613 41.9133ZM266.35 101H229.222V103H266.35V101ZM230.194 101.765L206.938 5.74859L204.994 6.2194L228.25 102.235L230.194 101.765ZM205.966 6.984H239.558V4.984H205.966V6.984ZM238.573 6.15296L249.181 68.033L251.152 67.695L240.544 5.81503L238.573 6.15296ZM251.141 68.0889L265.421 6.20885L263.472 5.75914L249.192 67.6391L251.141 68.0889ZM264.446 6.984H299.534V4.984H264.446V6.984ZM298.556 6.19131L311.612 67.7993L313.569 67.3847L300.513 5.77668L298.556 6.19131ZM313.576 67.7596L324.048 6.15157L322.077 5.81642L311.605 67.4244L313.576 67.7596ZM323.062 6.984H356.518V4.984H323.062V6.984ZM407.519 70.992V71.992H408.519V70.992H407.519ZM358.967 70.992H357.967V71.992H358.967V70.992ZM358.967 47.192V46.192H357.967V47.192H358.967ZM407.519 47.192H408.519V46.192H407.519V47.192ZM407.519 69.992H358.967V71.992H407.519V69.992ZM359.967 70.992V47.192H357.967V70.992H359.967ZM358.967 48.192H407.519V46.192H358.967V48.192ZM406.519 47.192V70.992H408.519V47.192H406.519ZM560.253 5.984L561.225 6.2181L561.522 4.984H560.253V5.984ZM537.133 102V103H537.921L538.105 102.234L537.133 102ZM500.277 102L499.307 102.243L499.496 103H500.277V102ZM485.317 42.16L486.287 41.9175L484.348 41.9133L485.317 42.16ZM470.085 102V103H470.862L471.054 102.247L470.085 102ZM432.957 102L431.985 102.235L432.17 103H432.957V102ZM409.701 5.984V4.984H408.43L408.729 6.2194L409.701 5.984ZM443.293 5.984L444.278 5.81503L444.136 4.984H443.293V5.984ZM453.901 67.864L452.915 68.033L454.875 68.0889L453.901 67.864ZM468.181 5.984V4.984H467.385L467.206 5.75914L468.181 5.984ZM503.269 5.984L504.247 5.77668L504.079 4.984H503.269V5.984ZM516.325 67.592L515.346 67.7993L517.311 67.7596L516.325 67.592ZM526.797 5.984V4.984H525.952L525.811 5.81642L526.797 5.984ZM559.281 5.74989L536.161 101.766L538.105 102.234L561.225 6.2181L559.281 5.74989ZM537.133 101H500.277V103H537.133V101ZM501.247 101.757L486.287 41.9175L484.347 42.4025L499.307 102.243L501.247 101.757ZM484.348 41.9133L469.116 101.753L471.054 102.247L486.286 42.4067L484.348 41.9133ZM470.085 101H432.957V103H470.085V101ZM433.929 101.765L410.673 5.74859L408.729 6.2194L431.985 102.235L433.929 101.765ZM409.701 6.984H443.293V4.984H409.701V6.984ZM442.307 6.15296L452.915 68.033L454.886 67.695L444.278 5.81503L442.307 6.15296ZM454.875 68.0889L469.155 6.20885L467.206 5.75914L452.926 67.6391L454.875 68.0889ZM468.181 6.984H503.269V4.984H468.181V6.984ZM502.29 6.19131L515.346 67.7993L517.303 67.3847L504.247 5.77668L502.29 6.19131ZM517.311 67.7596L527.783 6.15157L525.811 5.81642L515.339 67.4244L517.311 67.7596ZM526.797 6.984H560.253V4.984H526.797V6.984ZM673.576 94.656L674.136 95.4841L674.138 95.4831L673.576 94.656ZM654.4 102.952L654.618 103.928L654.4 102.952ZM589.8 96.152L589.295 97.0153L589.306 97.0216L589.8 96.152ZM577.696 86.224L576.937 86.8748L577.696 86.224ZM570.624 74.528L569.677 74.8507L569.681 74.8602L569.684 74.8697L570.624 74.528ZM567.768 64.192L566.779 64.3418L566.782 64.3591L566.785 64.3763L567.768 64.192ZM568.992 39.576L568.028 39.3084L568.026 39.3167L568.024 39.325L568.992 39.576ZM574.432 27.2L575.26 27.7599L574.432 27.2ZM580.96 18.904L580.253 18.1969L580.245 18.2044L580.238 18.2121L580.96 18.904ZM587.896 13.192L588.451 14.0241L588.459 14.0185L587.896 13.192ZM668.136 9.24799L667.681 10.1386L667.689 10.1424L668.136 9.24799ZM678.744 16.184L678.075 16.9273L678.082 16.9336L678.089 16.9397L678.744 16.184ZM686.088 24.48L686.917 23.9212L686.913 23.9145L686.088 24.48ZM654.128 35.088L653.258 35.5816L653.264 35.5919L654.128 35.088ZM645.288 26.928L644.816 27.8098L644.825 27.8142L645.288 26.928ZM609.792 32.64L609.028 31.994L609.028 31.9951L609.792 32.64ZM603.944 64.328L602.985 64.613L602.987 64.6202L603.944 64.328ZM608.568 73.848L609.396 73.2877L608.568 73.848ZM617.544 81.328L617.105 82.2266L617.117 82.2326L617.13 82.2384L617.544 81.328ZM658.344 63.24L659.316 63.4756L659.317 63.469L658.344 63.24ZM693.792 53.584C693.792 71.0389 686.871 84.4129 673.014 93.8289L674.138 95.4831C688.568 85.6777 695.792 71.6704 695.792 53.584H693.792ZM673.015 93.8279C667.225 97.7475 660.949 100.462 654.182 101.976L654.618 103.928C661.632 102.359 668.14 99.5432 674.136 95.4841L673.015 93.8279ZM654.182 101.976C647.38 103.498 639.432 104.264 630.328 104.264V106.264C639.538 106.264 647.638 105.489 654.618 103.928L654.182 101.976ZM630.328 104.264C614.126 104.264 600.8 101.248 590.294 95.2824L589.306 97.0216C600.197 103.205 613.889 106.264 630.328 106.264V104.264ZM590.305 95.2888C585.585 92.5282 581.639 89.288 578.455 85.5732L576.937 86.8748C580.28 90.776 584.404 94.1545 589.295 97.0152L590.305 95.2888ZM578.455 85.5732C575.255 81.8403 572.966 78.0441 571.564 74.1863L569.684 74.8697C571.182 78.9906 573.608 82.9917 576.937 86.8748L578.455 85.5732ZM571.57 74.2053C570.22 70.2438 569.283 66.847 568.751 64.0077L566.785 64.3763C567.341 67.3397 568.308 70.8335 569.677 74.8507L571.57 74.2053ZM568.757 64.0422C568.31 61.096 568.088 58.2449 568.088 55.488H566.088C566.088 58.3525 566.319 61.304 566.779 64.3418L568.757 64.0422ZM568.088 55.488C568.088 49.8499 568.714 44.6312 569.96 39.827L568.024 39.325C566.731 44.3128 566.088 49.702 566.088 55.488H568.088ZM569.955 39.8436C571.293 35.0263 573.067 31.0056 575.26 27.7599L573.603 26.6401C571.263 30.1038 569.41 34.3337 568.028 39.3084L569.955 39.8436ZM575.26 27.7599C577.505 24.4373 579.646 21.7198 581.682 19.5959L580.238 18.2121C578.103 20.4402 575.892 23.2534 573.603 26.6401L575.26 27.7599ZM581.667 19.6111C583.798 17.4795 586.06 15.6179 588.451 14.024L587.341 12.3599C584.836 14.0301 582.473 15.9765 580.253 18.1969L581.667 19.6111ZM588.459 14.0185C598.755 7.00607 612.725 3.44799 630.464 3.44799V1.44799C612.48 1.44799 598.071 5.05259 587.333 12.3655L588.459 14.0185ZM630.464 3.44799C638.578 3.44799 645.768 4.03417 652.041 5.19918L652.406 3.23281C645.986 2.04048 638.67 1.44799 630.464 1.44799V3.44799ZM652.041 5.19918C658.324 6.36596 663.529 8.01865 667.681 10.1386L668.591 8.35739C664.219 6.12534 658.817 4.42336 652.406 3.23281L652.041 5.19918ZM667.689 10.1424C671.985 12.2906 675.439 14.5554 678.075 16.9273L679.413 15.4407C676.608 12.9166 672.991 10.5574 668.583 8.35357L667.689 10.1424ZM678.089 16.9397C680.74 19.2374 683.132 21.9377 685.263 25.0455L686.913 23.9145C684.692 20.6756 682.188 17.8452 679.399 15.4283L678.089 16.9397ZM685.258 25.0387C690.945 33.4803 693.792 42.9855 693.792 53.584H695.792C695.792 42.6038 692.836 32.7064 686.917 23.9213L685.258 25.0387ZM660.432 53.856C660.432 50.684 660.012 47.5154 659.174 44.3521L657.241 44.8639C658.036 47.8659 658.432 50.8626 658.432 53.856H660.432ZM659.174 44.3521C658.332 41.1682 656.933 37.9119 654.992 34.5841L653.264 35.5919C655.131 38.7921 656.452 41.8824 657.241 44.8639L659.174 44.3521ZM654.997 34.5944C652.984 31.0461 649.882 28.201 645.751 26.0418L644.825 27.8142C648.673 29.8257 651.464 32.4205 653.258 35.5816L654.997 34.5944ZM645.759 26.0462C641.686 23.8674 636.847 22.8 631.28 22.8V24.8C636.593 24.8 641.092 25.818 644.816 27.8098L645.759 26.0462ZM631.28 22.8C621.715 22.8 614.245 25.8292 609.028 31.994L610.555 33.2859C615.312 27.6641 622.168 24.8 631.28 24.8V22.8ZM609.028 31.9951C603.962 37.9984 601.448 45.3519 601.448 53.992H603.448C603.448 45.7681 605.829 38.8869 610.556 33.2849L609.028 31.9951ZM601.448 53.992C601.448 57.6235 601.96 61.1648 602.985 64.613L604.902 64.043C603.933 60.7818 603.448 57.4325 603.448 53.992H601.448ZM602.987 64.6202C604.016 67.9877 605.603 71.2506 607.74 74.4083L609.396 73.2877C607.362 70.2801 605.866 67.1963 604.9 64.0358L602.987 64.6202ZM607.74 74.4083C609.938 77.6583 613.075 80.2587 617.105 82.2266L617.983 80.4294C614.215 78.5893 611.368 76.203 609.396 73.2877L607.74 74.4083ZM617.13 82.2384C621.273 84.1214 626.042 85.048 631.416 85.048V83.048C626.272 83.048 621.794 82.1613 617.958 80.4176L617.13 82.2384ZM631.416 85.048C637.159 85.048 642.132 83.9826 646.295 81.8062L645.369 80.0338C641.553 82.0281 636.915 83.048 631.416 83.048V85.048ZM646.295 81.8062C650.429 79.6456 653.491 76.7953 655.416 73.2355L653.656 72.2845C651.954 75.4341 649.214 78.0238 645.369 80.0338L646.295 81.8062ZM655.416 73.2355C657.26 69.8224 658.566 66.5683 659.316 63.4756L657.372 63.0044C656.671 65.8957 655.438 68.9883 653.656 72.2845L655.416 73.2355ZM659.317 63.469C660.06 60.3111 660.432 57.1063 660.432 53.856H658.432C658.432 56.9524 658.078 60.0035 657.37 63.011L659.317 63.469ZM820.522 102V103H822.325L821.37 101.471L820.522 102ZM782.578 102L781.708 102.494L781.996 103H782.578V102ZM762.722 67.048L763.591 66.554L763.304 66.048H762.722V67.048ZM744.498 67.048V66.048H743.498V67.048H744.498ZM744.498 102V103H745.498V102H744.498ZM709.954 102H708.954V103H709.954V102ZM709.954 5.984V4.984H708.954V5.984H709.954ZM800.53 8.432L800.233 9.38706L800.53 8.432ZM813.722 19.176L814.571 18.6486L814.564 18.6373L813.722 19.176ZM818.346 41.208L819.339 41.3248V41.3248L818.346 41.208ZM816.714 47.328L815.772 46.9917L815.768 47.0017L815.765 47.0118L816.714 47.328ZM813.178 53.992L812.386 53.3805L812.378 53.3921L812.369 53.4038L813.178 53.992ZM806.65 59.704L806.12 58.856L806.114 58.8598L806.108 58.8637L806.65 59.704ZM796.586 63.648L796.381 62.6692L794.979 62.9626L795.737 64.1775L796.586 63.648ZM744.498 27.744V26.744H743.498V27.744H744.498ZM744.498 45.424H743.498V46.424H744.498V45.424ZM782.442 42.024L783.207 42.6672L783.214 42.6597L782.442 42.024ZM782.85 31.688L782.026 32.2557L782.035 32.2677L782.043 32.2794L782.85 31.688ZM820.522 101H782.578V103H820.522V101ZM783.447 101.506L763.591 66.554L761.852 67.542L781.708 102.494L783.447 101.506ZM762.722 66.048H744.498V68.048H762.722V66.048ZM743.498 67.048V102H745.498V67.048H743.498ZM744.498 101H709.954V103H744.498V101ZM710.954 102V5.984H708.954V102H710.954ZM709.954 6.984H780.674V4.984H709.954V6.984ZM780.674 6.984C788.593 6.984 795.103 7.79494 800.233 9.38706L800.826 7.47693C795.439 5.80506 788.712 4.984 780.674 4.984V6.984ZM800.233 9.38706C805.225 10.9362 809.445 14.3429 812.879 19.7147L814.564 18.6373C810.927 12.9478 806.352 9.1918 800.826 7.47693L800.233 9.38706ZM812.872 19.7034C816.037 24.8019 817.618 30.3762 817.618 36.448H819.618C819.618 30.0078 817.935 24.0674 814.571 18.6486L812.872 19.7034ZM817.618 36.448C817.618 38.0429 817.529 39.5905 817.353 41.0912L819.339 41.3248C819.525 39.7428 819.618 38.1171 819.618 36.448H817.618ZM817.353 41.0912C817.184 42.5224 816.669 44.4802 815.772 46.9917L817.655 47.6643C818.572 45.0984 819.145 42.9763 819.339 41.3248L817.353 41.0912ZM815.765 47.0118C814.984 49.3558 813.857 51.4769 812.386 53.3805L813.969 54.6034C815.581 52.5178 816.812 50.1962 817.662 47.6442L815.765 47.0118ZM812.369 53.4038C811.017 55.2631 808.951 57.0861 806.12 58.856L807.18 60.552C810.151 58.6952 812.437 56.7103 813.986 54.5802L812.369 53.4038ZM806.108 58.8637C803.417 60.5992 800.182 61.8736 796.381 62.6692L796.791 64.6268C800.787 63.7904 804.261 62.4354 807.192 60.5443L806.108 58.8637ZM795.737 64.1775L819.673 102.529L821.37 101.471L797.434 63.1185L795.737 64.1775ZM743.498 27.744V45.424H745.498V27.744H743.498ZM744.498 46.424H770.338V44.424H744.498V46.424ZM770.338 46.424C773.473 46.424 776.122 46.1368 778.258 45.5367C780.392 44.9375 782.083 44.0061 783.207 42.6672L781.676 41.3808C780.897 42.3085 779.618 43.0772 777.717 43.6113C775.819 44.1446 773.368 44.424 770.338 44.424V46.424ZM783.214 42.6597C784.637 40.9309 785.346 38.8901 785.346 36.584H783.346C783.346 38.4485 782.785 40.0344 781.67 41.3883L783.214 42.6597ZM785.346 36.584C785.346 34.496 784.795 32.6499 783.656 31.0966L782.043 32.2794C782.899 33.4461 783.346 34.864 783.346 36.584H785.346ZM783.673 31.1203C781.595 28.1077 777.935 26.744 773.058 26.744V28.744C777.609 28.744 780.477 30.0097 782.026 32.2557L783.673 31.1203ZM773.058 26.744H744.498V28.744H773.058V26.744ZM945.097 102V103H947.023L945.914 101.424L945.097 102ZM903.753 102L902.931 102.57L903.229 103H903.753V102ZM878.593 65.688L879.415 65.1185L878.748 64.1569L877.902 64.9646L878.593 65.688ZM866.625 77.112L865.934 76.3886L865.625 76.6841V77.112H866.625ZM866.625 102V103H867.625V102H866.625ZM834.801 102H833.801V103H834.801V102ZM834.801 5.984V4.984H833.801V5.984H834.801ZM866.761 5.984H867.761V4.984H866.761V5.984ZM866.761 41.888H865.761V44.4989L867.505 42.556L866.761 41.888ZM898.993 5.984V4.984H898.547L898.248 5.31597L898.993 5.984ZM940.745 5.984L941.439 6.70398L943.223 4.984H940.745V5.984ZM903.073 42.296L902.379 41.576L901.762 42.1708L902.255 42.8716L903.073 42.296ZM945.097 101H903.753V103H945.097V101ZM904.575 101.43L879.415 65.1185L877.771 66.2575L902.931 102.57L904.575 101.43ZM877.902 64.9646L865.934 76.3886L867.315 77.8354L879.283 66.4114L877.902 64.9646ZM865.625 77.112V102H867.625V77.112H865.625ZM866.625 101H834.801V103H866.625V101ZM835.801 102V5.984H833.801V102H835.801ZM834.801 6.984H866.761V4.984H834.801V6.984ZM865.761 5.984V41.888H867.761V5.984H865.761ZM867.505 42.556L899.737 6.65203L898.248 5.31597L866.016 41.22L867.505 42.556ZM898.993 6.984H940.745V4.984H898.993V6.984ZM940.051 5.26401L902.379 41.576L903.767 43.016L941.439 6.70398L940.051 5.26401ZM902.255 42.8716L944.279 102.576L945.914 101.424L903.89 41.7204L902.255 42.8716ZM943.415 73.304L943.387 72.3044L942.304 72.3348L942.42 73.4111L943.415 73.304ZM977.279 72.352L978.255 72.1351L978.076 71.3292L977.251 71.3524L977.279 72.352ZM1010.73 80.784L1010.24 79.9173L1010.22 79.9241L1010.73 80.784ZM1005.29 65.552L1005.5 64.5724L1005.49 64.5708L1005.29 65.552ZM981.767 60.928L981.569 61.9083L981.574 61.9092L981.767 60.928ZM956.199 51.136L955.576 51.9182L955.584 51.9246L956.199 51.136ZM953.343 17.272L954.139 17.8771L954.147 17.866L954.155 17.8546L953.343 17.272ZM1026.78 5.712L1026.44 6.65319L1026.45 6.65587L1026.46 6.65843L1026.78 5.712ZM1043.78 19.312L1044.66 18.8349L1044.66 18.828L1044.65 18.8212L1043.78 19.312ZM1047.05 29.92L1047.1 30.9184L1048.16 30.8584L1048.04 29.8045L1047.05 29.92ZM1013.45 31.824L1012.48 32.0586L1012.68 32.8696L1013.51 32.8224L1013.45 31.824ZM1009.24 25.84L1008.68 26.6721L1008.7 26.6802L1008.71 26.688L1009.24 25.84ZM1003.12 23.392L1002.97 24.3809L1003 24.3849L1003.02 24.3875L1003.12 23.392ZM985.439 36.448L985.016 37.3543L985.027 37.3594L985.439 36.448ZM1001.21 40.664L1001.41 39.6838L1001.41 39.6834L1001.21 40.664ZM1013.32 43.112L1013.52 42.1325L1013.52 42.1318L1013.32 43.112ZM1019.57 44.472L1019.33 45.4421L1019.37 45.4518L1019.41 45.4584L1019.57 44.472ZM1025.83 46.104L1025.55 47.0634L1025.57 47.0682L1025.58 47.0725L1025.83 46.104ZM1032.77 48.416L1032.32 49.3104L1032.33 49.3158L1032.34 49.3208L1032.77 48.416ZM1038.61 51.816L1038.07 52.653L1038.09 52.665L1038.1 52.6763L1038.61 51.816ZM1044.05 56.576L1043.23 57.1407L1043.24 57.1512L1043.24 57.1615L1044.05 56.576ZM1047.18 62.832L1046.24 63.1683L1046.25 63.189L1046.26 63.2093L1047.18 62.832ZM1042.56 88.944L1043.35 89.558L1043.35 89.5504L1042.56 88.944ZM943.443 74.3036L977.307 73.3516L977.251 71.3524L943.387 72.3044L943.443 74.3036ZM976.302 72.5689C977.187 76.5487 979.565 79.5384 983.346 81.5015C987.083 83.4418 992.161 84.368 998.495 84.368V82.368C992.317 82.368 987.603 81.4582 984.268 79.7265C980.976 78.0176 979.003 75.4993 978.255 72.1351L976.302 72.5689ZM998.495 84.368C1003.84 84.368 1008.13 83.4959 1011.25 81.6439L1010.22 79.9241C1007.54 81.5175 1003.67 82.368 998.495 82.368V84.368ZM1011.23 81.6506C1014.48 79.7823 1016.22 77.123 1016.22 73.712H1014.22C1014.22 76.285 1012.97 78.3403 1010.24 79.9174L1011.23 81.6506ZM1016.22 73.712C1016.22 71.3561 1015.25 69.3785 1013.38 67.8395C1011.54 66.3334 1008.88 65.2682 1005.5 64.5725L1005.09 66.5315C1008.33 67.1958 1010.63 68.1706 1012.11 69.3845C1013.54 70.5655 1014.22 71.9879 1014.22 73.712H1016.22ZM1005.49 64.5708L981.96 59.9468L981.574 61.9092L1005.1 66.5332L1005.49 64.5708ZM981.964 59.9477C970.321 57.6011 961.98 54.3756 956.814 50.3474L955.584 51.9246C961.116 56.2377 969.82 59.5402 981.569 61.9083L981.964 59.9477ZM956.822 50.3538C951.752 46.3151 949.175 40.5071 949.175 32.776H947.175C947.175 41.0023 949.947 47.4342 955.576 51.9182L956.822 50.3538ZM949.175 32.776C949.175 27.1874 950.828 22.2329 954.139 17.8771L952.547 16.6669C948.966 21.3778 947.175 26.7593 947.175 32.776H949.175ZM954.155 17.8546C961.211 8.01187 975.201 2.90399 996.591 2.90399V0.903992C975.005 0.903992 960.163 6.04145 952.53 16.6894L954.155 17.8546ZM996.591 2.90399C1009.6 2.90399 1019.53 4.17197 1026.44 6.65319L1027.12 4.77081C1019.89 2.17469 1009.69 0.903992 996.591 0.903992V2.90399ZM1026.46 6.65843C1033.96 9.21717 1039.42 13.6021 1042.91 19.8028L1044.65 18.8212C1040.89 12.1473 1035.02 7.46549 1027.11 4.76557L1026.46 6.65843ZM1042.9 19.7891C1044.56 22.8409 1045.61 26.2525 1046.05 30.0355L1048.04 29.8045C1047.57 25.7902 1046.45 22.1298 1044.66 18.8349L1042.9 19.7891ZM1046.99 28.9216L1013.4 30.8256L1013.51 32.8224L1047.1 30.9184L1046.99 28.9216ZM1014.43 31.5894C1013.73 28.7208 1012.18 26.4988 1009.77 24.992L1008.71 26.688C1010.65 27.9012 1011.91 29.6685 1012.48 32.0586L1014.43 31.5894ZM1009.79 25.0079C1007.53 23.4977 1005.33 22.5982 1003.21 22.3965L1003.02 24.3875C1004.71 24.5485 1006.6 25.2809 1008.68 26.6721L1009.79 25.0079ZM1003.27 22.4031C1001.39 22.1213 999.114 21.984 996.455 21.984V23.984C999.054 23.984 1001.22 24.1187 1002.97 24.3809L1003.27 22.4031ZM996.455 21.984C991.371 21.984 987.408 22.6199 984.682 23.9952C983.305 24.69 982.213 25.5889 981.468 26.7167C980.719 27.8504 980.359 29.1575 980.359 30.6H982.359C982.359 29.5038 982.628 28.5896 983.137 27.8193C983.649 27.0431 984.444 26.3553 985.583 25.7808C987.889 24.6175 991.474 23.984 996.455 23.984V21.984ZM980.359 30.6C980.359 32.0966 980.749 33.446 981.559 34.6062C982.362 35.7585 983.538 36.6644 985.016 37.3542L985.862 35.5418C984.62 34.9623 983.755 34.2589 983.199 33.4618C982.648 32.6727 982.359 31.7327 982.359 30.6H980.359ZM985.027 37.3594C987.954 38.6813 993.317 40.1043 1001.02 41.6446L1001.41 39.6834C993.699 38.141 988.544 36.7534 985.85 35.5366L985.027 37.3594ZM1001.02 41.6441L1013.12 44.0922L1013.52 42.1318L1001.41 39.6838L1001.02 41.6441ZM1013.12 44.0915C1016.2 44.7266 1018.27 45.176 1019.33 45.4421L1019.82 43.5019C1018.71 43.224 1016.6 42.7667 1013.52 42.1325L1013.12 44.0915ZM1019.41 45.4584C1020.43 45.6282 1022.46 46.1542 1025.55 47.0634L1026.11 45.1446C1023.04 44.2405 1020.9 43.6785 1019.74 43.4856L1019.41 45.4584ZM1025.58 47.0725C1028.74 47.8849 1030.97 48.6346 1032.32 49.3104L1033.21 47.5216C1031.66 46.7467 1029.27 45.9551 1026.08 45.1355L1025.58 47.0725ZM1032.34 49.3208C1033.82 50.0178 1035.73 51.1229 1038.07 52.653L1039.16 50.979C1036.79 49.4264 1034.79 48.2649 1033.19 47.5112L1032.34 49.3208ZM1038.1 52.6763C1040.47 54.0781 1042.16 55.5738 1043.23 57.1407L1044.88 56.0113C1043.59 54.1329 1041.65 52.4552 1039.12 50.9557L1038.1 52.6763ZM1043.24 57.1615C1044.35 58.6962 1045.36 60.6905 1046.24 63.1683L1048.12 62.4957C1047.2 59.8962 1046.11 57.7198 1044.87 55.9905L1043.24 57.1615ZM1046.26 63.2093C1047.2 65.5263 1047.68 68.0714 1047.68 70.856H1049.68C1049.68 67.838 1049.16 65.0337 1048.11 62.4547L1046.26 63.2093ZM1047.68 70.856C1047.68 77.3455 1045.71 83.1619 1041.76 88.3375L1043.35 89.5504C1047.57 84.0274 1049.68 77.7851 1049.68 70.856H1047.68ZM1041.77 88.3301C1033.82 98.5539 1017.92 103.856 993.599 103.856V105.856C1018.06 105.856 1034.8 100.55 1043.35 89.5579L1041.77 88.3301ZM993.599 103.856C978.093 103.856 966.33 101.238 958.193 96.1214C950.108 91.0384 945.512 83.4348 944.409 73.1969L942.42 73.4111C943.584 84.2079 948.485 92.3803 957.128 97.8146C965.719 103.216 977.915 105.856 993.599 105.856V103.856Z"
     fill="#242426"
     id="path4" />
</svg>
