<?xml version="1.0" standalone="no"?>
<!DOCTYPE svg PUBLIC "-//W3C//DTD SVG 20010904//EN"
 "http://www.w3.org/TR/2001/REC-SVG-20010904/DTD/svg10.dtd">
<svg version="1.0" xmlns="http://www.w3.org/2000/svg"
 width="1080.000000pt" height="1080.000000pt" viewBox="0 0 1080.000000 1080.000000"
 preserveAspectRatio="xMidYMid meet">
<metadata>
Created by potrace 1.11, written by Peter Selinger 2001-2013
</metadata>
<g transform="translate(0.000000,1080.000000) scale(0.100000,-0.100000)"
fill="#000000" stroke="none">
<path d="M0 5400 l0 -5400 5400 0 5400 0 0 5400 0 5400 -5400 0 -5400 0 0
-5400z m4702 1619 c5 -3 11 -15 12 -25 2 -10 8 -19 14 -19 16 0 27 -15 11 -15
-10 -1 -9 -4 4 -11 9 -5 22 -7 29 -3 7 5 8 3 4 -5 -5 -7 -14 -10 -22 -7 -8 3
-11 0 -8 -9 3 -8 10 -13 16 -12 6 1 21 -16 34 -38 23 -40 33 -73 13 -45 -9 13
-10 13 -6 0 2 -8 11 -14 20 -14 12 1 15 -7 12 -35 -1 -20 0 -30 2 -23 4 9 10
7 24 -9 10 -12 16 -25 14 -29 -5 -9 24 -24 40 -21 6 1 3 -4 -6 -11 -11 -9 -14
-19 -8 -33 8 -20 8 -20 9 0 l1 20 8 -20 c5 -11 6 -26 3 -34 -3 -8 -1 -12 5 -8
10 6 27 -27 24 -46 -1 -5 2 -6 7 -3 4 2 14 1 22 -5 13 -7 13 -9 1 -9 -11 0 -9
-6 6 -22 11 -13 30 -45 43 -71 14 -31 27 -46 36 -43 8 3 11 0 8 -8 -3 -8 0
-17 6 -21 9 -6 9 -10 -1 -16 -11 -7 -9 -9 5 -9 20 0 20 0 0 -15 -18 -13 -18
-14 6 -10 21 4 26 0 27 -17 1 -13 8 -27 16 -33 8 -5 12 -16 10 -22 -3 -7 1
-13 8 -13 7 0 9 -3 6 -7 -4 -3 -1 -13 6 -21 10 -13 9 -14 -2 -7 -10 5 -12 4
-7 -3 4 -7 14 -12 22 -12 8 0 14 -4 14 -10 0 -5 -3 -9 -8 -7 -4 1 -8 -2 -10
-8 -1 -5 3 -11 8 -11 6 -1 15 -2 21 -3 5 0 7 -6 4 -11 -3 -6 0 -13 9 -16 9 -4
13 -14 10 -31 -3 -13 -1 -22 4 -19 5 3 19 -6 30 -19 14 -16 17 -25 9 -26 -9 0
-9 -2 1 -6 6 -2 12 -16 12 -29 0 -13 5 -24 11 -24 6 0 8 -9 4 -22 -5 -17 -4
-19 4 -9 12 18 36 2 44 -30 5 -17 3 -18 -11 -8 -9 7 -2 -3 16 -22 17 -19 32
-40 32 -47 0 -7 5 -12 10 -12 6 0 10 -5 10 -11 0 -5 -5 -7 -11 -3 -6 3 -3 -5
6 -19 9 -15 14 -31 10 -36 -3 -6 0 -9 7 -6 14 5 51 -47 43 -59 -3 -3 -2 -4 1
-1 10 7 36 -24 32 -38 -5 -14 27 -48 37 -39 3 4 3 -1 -1 -11 -3 -9 -11 -14
-17 -10 -6 3 -7 1 -3 -6 4 -6 12 -8 18 -5 7 5 9 1 5 -9 -4 -10 -2 -16 6 -14 7
1 11 -4 10 -10 -3 -11 7 -16 27 -15 3 0 6 -11 6 -24 1 -15 -2 -21 -10 -17 -7
4 -6 1 1 -9 7 -8 10 -18 6 -21 -3 -4 1 -7 10 -7 10 0 17 -6 17 -14 0 -8 7 -16
15 -20 8 -3 15 -16 15 -30 0 -20 22 -41 40 -38 3 0 5 -12 4 -26 -1 -29 15 -64
27 -56 4 2 9 -3 13 -11 3 -8 1 -15 -5 -15 -6 0 -7 -5 -4 -10 4 -6 11 -8 16 -5
5 4 9 1 9 -4 0 -6 -5 -11 -12 -11 -6 0 -8 -3 -5 -6 4 -4 13 -1 22 6 14 11 15
8 11 -24 -4 -28 -1 -36 8 -33 8 3 18 -5 25 -19 7 -15 16 -22 23 -18 7 4 8 3 4
-5 -4 -6 -12 -9 -17 -6 -5 4 -9 1 -9 -4 0 -6 7 -11 15 -11 8 0 15 -7 15 -16 0
-8 4 -13 9 -10 5 3 15 -1 22 -10 11 -13 9 -14 -16 -8 -20 5 -26 4 -21 -5 4 -6
14 -11 21 -11 8 0 12 -6 9 -14 -3 -8 0 -17 7 -22 8 -5 10 -3 4 6 -5 8 -4 11 3
7 5 -4 8 -17 4 -29 -4 -16 -2 -19 8 -13 10 6 12 4 7 -9 -4 -11 -1 -19 11 -23
9 -4 28 -18 42 -31 14 -14 19 -21 13 -18 -8 5 -13 1 -13 -9 0 -8 6 -18 14 -21
8 -3 16 -17 20 -32 3 -15 10 -34 16 -42 9 -13 11 -13 20 0 5 8 10 10 10 4 0
-5 -6 -16 -12 -23 -11 -10 -10 -11 4 -6 13 5 16 2 13 -14 -2 -12 0 -22 6 -22
5 -1 13 -2 18 -3 18 -2 24 -16 7 -16 -10 0 -16 -6 -13 -12 2 -7 10 -12 17 -10
10 2 10 -1 -1 -14 -9 -12 -9 -15 -1 -10 11 6 17 -11 13 -36 0 -5 3 -8 9 -8 5
0 10 -7 10 -15 0 -9 15 -30 33 -48 17 -18 34 -37 37 -42 3 -6 9 -9 14 -7 5 2
4 -3 -2 -11 -9 -11 -7 -18 11 -35 13 -12 27 -19 30 -15 4 3 7 1 7 -5 0 -7 -8
-12 -17 -12 -17 -1 -17 -2 1 -15 10 -8 15 -19 10 -26 -5 -9 -1 -11 14 -7 22 6
26 0 22 -36 -1 -13 3 -17 13 -13 10 4 13 -1 10 -21 -4 -21 -2 -24 6 -12 9 13
11 12 11 -6 0 -11 3 -24 8 -28 7 -8 8 -13 11 -43 1 -16 3 -16 12 -3 8 12 10
12 8 -5 -3 -25 10 -55 23 -55 5 0 6 5 3 10 -3 6 -2 10 3 10 13 0 22 -39 11
-46 -5 -3 -9 0 -9 6 0 6 -5 8 -11 4 -8 -5 -6 -10 5 -16 9 -5 21 -6 28 -2 7 4
8 3 4 -4 -4 -7 -2 -13 3 -13 6 -1 16 -3 21 -4 6 -1 13 -3 16 -4 4 0 2 -7 -3
-13 -11 -14 8 -74 20 -62 7 7 22 -44 19 -63 -2 -7 12 -26 29 -43 18 -16 28
-30 23 -30 -5 0 -4 -4 1 -8 16 -11 41 -47 28 -39 -6 4 -14 3 -17 -2 -3 -5 4
-11 15 -14 16 -4 20 -11 16 -26 -5 -20 16 -36 33 -26 4 3 6 -4 3 -15 -3 -11 0
-26 6 -33 6 -8 8 -16 5 -20 -3 -3 4 -11 16 -17 15 -8 19 -15 11 -19 -7 -5 -3
-12 14 -21 25 -13 29 -38 6 -32 -7 1 -10 -2 -6 -8 3 -5 14 -10 25 -10 13 0 17
-5 13 -20 -5 -20 -14 -20 -2057 -21 -2067 -2 -2127 -1 -2133 5 -2 2 204 331
458 732 465 734 1326 2093 1604 2531 101 159 151 230 154 217 2 -10 8 -22 13
-25z m263 -419 c3 -5 1 -10 -4 -10 -6 0 -11 5 -11 10 0 6 2 10 4 10 3 0 8 -4
11 -10z m1115 -1965 c0 -8 -2 -15 -4 -15 -2 0 -6 7 -10 15 -3 8 -1 15 4 15 6
0 10 -7 10 -15z m250 -430 c0 -8 -4 -15 -10 -15 -5 0 -7 7 -4 15 4 8 8 15 10
15 2 0 4 -7 4 -15z"/>
<path d="M4765 6890 c3 -5 8 -10 11 -10 2 0 4 5 4 10 0 6 -5 10 -11 10 -5 0
-7 -4 -4 -10z"/>
<path d="M5640 5339 c0 -5 5 -7 10 -4 6 3 10 8 10 11 0 2 -4 4 -10 4 -5 0 -10
-5 -10 -11z"/>
<path d="M6369 4087 c7 -7 14 -8 21 -1 6 6 2 10 -12 11 -16 2 -18 -1 -9 -10z"/>
<path d="M6445 3920 c3 -5 8 -10 11 -10 2 0 4 5 4 10 0 6 -5 10 -11 10 -5 0
-7 -4 -4 -10z"/>
<path d="M6510 3809 c0 -5 5 -7 10 -4 6 3 10 8 10 11 0 2 -4 4 -10 4 -5 0 -10
-5 -10 -11z"/>
</g>
</svg>
